<?xml version="1.0" standalone="no"?>
<!DOCTYPE svg PUBLIC "-//W3C//DTD SVG 1.1//EN" "http://www.w3.org/Graphics/SVG/1.1/DTD/svg11.dtd" >
<svg xmlns="http://www.w3.org/2000/svg">
<metadata></metadata>
<defs>
<font id="dejavu_serifitalic" horiz-adv-x="1303" >
<font-face units-per-em="2048" ascent="1556" descent="-492" />
<missing-glyph horiz-adv-x="651" />
<glyph unicode="&#xfb01;" horiz-adv-x="1366" d="M321 956h-176l21 107h176l19 96q38 197 174.5 297t365.5 100q87 0 175.5 -13t172.5 -40l-42 -217l-94 1q3 18 3 34q0 61 -42 95q-53 42 -176 42q-153 0 -238 -71t-114 -224l-20 -100h711l-186 -957h174l-20 -106h-358l185 956h-527l-198 -1022q-35 -178 -145 -269 t-289 -91l12 98q105 0 156 56q53 60 82 206z" />
<glyph unicode="&#xfb02;" horiz-adv-x="1366" d="M321 956h-176l21 107h176l19 96q39 201 177.5 299t382.5 98h397l-282 -1450h175l-20 -106h-359l281 1450h-215q-163 0 -242.5 -65t-109.5 -222l-20 -100h295l-21 -107h-295l-198 -1022q-35 -178 -145 -269t-289 -91l12 98q105 0 156 56q53 60 82 206z" />
<glyph unicode="&#xfb03;" horiz-adv-x="1928" d="M994 956h-489l-198 -1022q-35 -178 -145 -269t-289 -91l12 98q105 0 156 56q53 60 82 206l198 1022h-176l21 107h176l26 133q35 179 145 269q110 91 289 91q67 0 131.5 -12t126.5 -37l-40 -202h-97q4 21 4 40q0 46 -24 74q-34 39 -113 39q-103 0 -156 -56.5t-81 -201.5 l-27 -137h489l19 96q38 197 174.5 297t365.5 100q87 0 175.5 -13t172.5 -40l-43 -217l-93 1q2 18 2 34q0 61 -41 95q-53 42 -176 42q-153 0 -238 -71t-115 -224l-19 -100h711l-186 -957h174l-21 -106h-358l186 956h-527l-199 -1022q-34 -178 -144.5 -269t-289.5 -91l12 98 q105 0 156 56q54 60 82 206z" />
<glyph unicode="&#xfb04;" horiz-adv-x="2019" d="M1019 956l-198 -1022q-29 -146 -82 -206q-51 -56 -156 -56l-12 -98q179 0 289 91t145 269l198 1022h295l21 107h-295l20 100q30 157 109.5 222t242.5 65h215l-281 -1450h359l20 106h-175l282 1450h-397q-244 0 -382.5 -98t-177.5 -299l-19 -96h-514l27 137 q28 145 81 201.5t156 56.5q79 0 113 -39q24 -28 24 -74q0 -19 -4 -40h97l40 202q-62 25 -126.5 37t-131.5 12q-179 0 -289 -91q-110 -90 -145 -269l-26 -133h-176l-21 -107h176l-198 -1022q-29 -146 -82 -206q-51 -56 -156 -56l-12 -98q179 0 289 91t145 269l198 1022h514z " />
<glyph horiz-adv-x="2048" />
<glyph horiz-adv-x="2048" />
<glyph unicode="&#xd;" horiz-adv-x="682" />
<glyph unicode=" "  horiz-adv-x="651" />
<glyph unicode="&#x09;" horiz-adv-x="651" />
<glyph unicode="&#xa0;" horiz-adv-x="651" />
<glyph unicode="!" horiz-adv-x="823" d="M157 104q11 56 56.5 95t102.5 39q55 0 86.5 -39t20.5 -95q-11 -55 -57.5 -94t-101.5 -39q-57 0 -87.5 38.5t-19.5 94.5zM431 1493h258l-228 -821l-49 -252h-123l49 252z" />
<glyph unicode="&#x22;" horiz-adv-x="942" d="M360 1493v-555h-159v555h159zM741 1493v-555h-159v555h159z" />
<glyph unicode="#" horiz-adv-x="1716" d="M1042 901h-282l-84 -334h285zM901 1470l-102 -415h282l103 415h172l-105 -415h308v-154h-347l-82 -334h314v-153h-352l-103 -414h-172l105 414h-283l-104 -414h-170l102 414h-309v153h348l82 334h-316v154h355l104 415h170z" />
<glyph unicode="$" d="M581 68q115 10 185.5 65t88.5 150q17 86 -30.5 146t-155.5 91zM699 1187q-105 -7 -172 -59.5t-84 -140.5q-16 -80 26.5 -133t147.5 -86zM68 72l54 276h108q-23 -137 39.5 -207t211.5 -73l95 485q-218 64 -295 147.5t-50 221.5q31 160 160 257t327 109l52 268h100 l-52 -268q100 -8 188.5 -32.5t169.5 -65.5l-51 -262h-109q11 116 -45 183t-172 76l-88 -452q233 -67 314.5 -153.5t53.5 -231.5q-32 -166 -167.5 -266t-349.5 -115l-52 -270h-100l52 270q-96 2 -194 27.5t-200 75.5z" />
<glyph unicode="%" horiz-adv-x="1946" d="M591 1427q-88 0 -153.5 -83t-94.5 -232q-28 -147 6 -231t120 -84q85 0 150.5 83.5t94.5 231.5t-4.5 231.5t-118.5 83.5zM1479 694q-87 0 -153 -84t-95 -233q-28 -147 5.5 -230.5t119.5 -83.5t151.5 83.5t93.5 230.5q29 148 -4 232.5t-118 84.5zM1496 784q158 0 230 -110 t35.5 -297t-151.5 -296.5t-272 -109.5q-160 0 -231.5 109.5t-35.5 296.5q37 188 151.5 297.5t273.5 109.5zM1515 1520h152l-1236 -1549h-152zM608 1520q158 0 230.5 -109.5t36.5 -296.5q-37 -189 -151.5 -298t-273.5 -109t-230.5 109.5t-34.5 297.5q36 186 150.5 296 t272.5 110z" />
<glyph unicode="&#x26;" horiz-adv-x="1823" d="M1006 231l-463 613q-102 -78 -163 -168.5t-81 -192.5q-8 -43 -8 -82q0 -113 69 -197q93 -112 265 -112q102 0 199.5 35.5t181.5 103.5zM1581 0h-401l-109 145q-122 -88 -249.5 -131t-265.5 -43q-258 0 -383 132q-93 98 -93 247q0 52 12 111q26 133 124.5 248.5 t273.5 216.5q-39 61 -51 122q-6 29 -6 60q0 32 6 66q31 159 164 252.5t330 93.5q67 0 153 -17t194 -51l-50 -258h-113q1 12 1 24q0 89 -47 139q-53 56 -163 56q-103 0 -178 -56.5t-93 -146.5q-4 -21 -4 -42q0 -40 15 -80q21 -58 108 -173l410 -544q85 80 142.5 172.5 t87.5 197.5l21 107h293l-21 -107h-172q-42 -130 -113.5 -243t-173.5 -209l137 -183h235z" />
<glyph unicode="'" horiz-adv-x="563" d="M360 1493v-555h-159v555h159z" />
<glyph unicode="(" horiz-adv-x="799" d="M471 -319q-222 109 -300 345.5t-9 591.5q69 356 239 592.5t434 345.5l-19 -98q-174 -106 -278.5 -298.5t-172.5 -541.5q-68 -348 -38.5 -540.5t163.5 -298.5z" />
<glyph unicode=")" horiz-adv-x="799" d="M-37 -319l19 98q174 106 279 298.5t173 540.5q68 349 38 541.5t-164 298.5l19 98q223 -109 301 -345.5t9 -592.5q-69 -355 -239 -591.5t-435 -345.5z" />
<glyph unicode="*" horiz-adv-x="1024" d="M991 1237l-391 -182l391 -185l-76 -118l-348 217l13 -381h-136l13 381l-348 -217l-76 118l391 183l-391 184l76 119l348 -217l-13 381h136l-13 -381l348 217z" />
<glyph unicode="+" horiz-adv-x="1716" d="M938 1284v-561h561v-162h-561v-561h-160v561h-561v162h561v561h160z" />
<glyph unicode="," horiz-adv-x="651" d="M40 -199q108 69 170 162.5t88 226.5l7 37h197q-41 -171 -137.5 -293.5t-259.5 -212.5z" />
<glyph unicode="-" horiz-adv-x="692" d="M105 627h512l-30 -156h-512z" />
<glyph unicode="." horiz-adv-x="651" d="M193 104q11 56 56.5 95t102.5 39q55 0 86.5 -39t20.5 -95q-11 -55 -57.5 -94t-101.5 -39q-57 0 -87.5 38.5t-19.5 94.5z" />
<glyph unicode="/" horiz-adv-x="690" d="M694 1493h160l-858 -1683h-160z" />
<glyph unicode="0" d="M520 70q153 0 261.5 168t174.5 507q66 340 22.5 508t-196.5 168t-261.5 -168t-174.5 -508q-66 -339 -22.5 -507t196.5 -168zM500 -29q-243 0 -339.5 204t-25.5 570q71 367 247.5 571t419.5 204q244 0 340 -204t25 -571q-71 -366 -247 -570t-420 -204z" />
<glyph unicode="1" d="M143 0l21 106h260l241 1242l-339 -195l26 131l410 236h138l-275 -1414h260l-21 -106h-721z" />
<glyph unicode="2" d="M335 1137h-112l52 266q118 57 232.5 87t218.5 30q233 0 346 -113t75 -307q-42 -219 -408 -524q-28 -23 -43 -35l-450 -377h623l36 184h117l-68 -348h-963l21 109l541 452q179 150 267.5 275.5t115.5 263.5q29 151 -33 236t-200 85q-143 0 -234.5 -71t-133.5 -213z" />
<glyph unicode="3" d="M332 1430q126 44 238 67t206 23q219 0 323.5 -94.5t71.5 -262.5q-26 -135 -128.5 -225.5t-264.5 -122.5q178 -26 259 -133.5t47 -278.5q-40 -209 -202.5 -320.5t-426.5 -111.5q-117 0 -223.5 25t-206.5 76l56 290h112q-18 -144 55 -218t231 -74q153 0 258.5 88.5 t135.5 242.5q34 176 -39.5 266.5t-249.5 90.5h-95l20 102h50q175 0 276.5 72.5t130.5 218.5q25 131 -33.5 200.5t-193.5 69.5t-222 -64t-124 -190h-112z" />
<glyph unicode="4" d="M666 506l154 794l-664 -794h510zM1007 0h-680l21 106h240l57 293h-652l21 109l851 1012h198l-197 -1014h285l-21 -107h-285l-57 -293h240z" />
<glyph unicode="5" d="M1178 1493l-32 -164h-684l-83 -428q59 36 132 54t159 18q242 0 356 -134t69 -366q-46 -237 -213.5 -369.5t-423.5 -132.5q-103 0 -206 25t-206 76l56 290h113q-19 -142 48 -217t214 -75q158 0 263.5 104t143.5 299q37 194 -27 297.5t-223 103.5q-90 0 -165 -32t-141 -99 h-86l146 750h790z" />
<glyph unicode="6" d="M539 70q141 0 237 103.5t133.5 297.5t-18 297.5t-196.5 103.5q-143 0 -237.5 -100t-131.5 -289q-39 -199 16.5 -306t196.5 -107zM359 822q82 75 175.5 112t201.5 37q223 0 326.5 -134t58.5 -366q-44 -227 -210.5 -363.5t-399.5 -136.5q-253 0 -352 188.5t-31 538.5 q76 392 279 607t496 215q79 0 163 -15t169 -45l-48 -246h-113q8 101 -47 154t-165 53q-194 0 -317.5 -147t-185.5 -452z" />
<glyph unicode="7" d="M1280 1391l-854 -1391h-149l815 1329h-690l-36 -184h-117l68 348h983z" />
<glyph unicode="8" d="M888 408q31 160 -31 248.5t-206 88.5t-241 -88.5t-128 -248.5q-31 -161 31.5 -249.5t206.5 -88.5t240.5 88.5t127.5 249.5zM988 1133q27 136 -27.5 212t-178.5 76q-123 0 -207 -76t-111 -212q-26 -137 28.5 -213t177.5 -76q124 0 208 76t110 213zM815 795 q165 -23 240 -125.5t44 -261.5q-40 -210 -195.5 -323.5t-403.5 -113.5q-247 0 -358 113.5t-71 323.5q31 159 146 261.5t291 125.5q-146 27 -209.5 114.5t-37.5 223.5q35 180 179.5 283.5t361.5 103.5t320.5 -103.5t68.5 -283.5q-26 -136 -123.5 -223.5t-252.5 -114.5z" />
<glyph unicode="9" d="M943 669q-81 -75 -175.5 -112t-203.5 -37q-222 0 -324.5 134t-57.5 366q44 227 210.5 363.5t399.5 136.5q253 0 351.5 -188.5t30.5 -538.5q-76 -392 -279 -607t-495 -215q-79 0 -163 15t-169 45l48 248h112q-6 -101 48.5 -155t163.5 -54q194 0 317.5 146.5t185.5 452.5z M764 1421q-142 0 -237.5 -103.5t-133 -297.5t17.5 -298t197 -104t237 100.5t132 289.5q39 199 -16.5 306t-196.5 107z" />
<glyph unicode=":" horiz-adv-x="690" d="M150 104q11 56 57 95t102 39t87 -39t20 -95t-56.5 -94.5t-102.5 -38.5t-87.5 38.5t-19.5 94.5zM276 756q11 56 57 94.5t102 38.5q57 0 87.5 -38t19.5 -95t-56 -95t-102 -38q-56 0 -87.5 38.5t-20.5 94.5z" />
<glyph unicode=";" horiz-adv-x="690" d="M-24 -199q107 69 169.5 162.5t88.5 226.5l7 37h197q-41 -171 -137.5 -293.5t-260.5 -212.5zM305 756q11 56 57 94.5t102 38.5t86.5 -39t20.5 -94q-11 -56 -57 -94.5t-102 -38.5t-87 38.5t-20 94.5z" />
<glyph unicode="&#x3c;" horiz-adv-x="1716" d="M1499 1020l-1038 -379l1038 -377v-170l-1282 465v166l1282 465v-170z" />
<glyph unicode="=" horiz-adv-x="1716" d="M217 926h1282v-160h-1282v160zM217 518h1282v-160h-1282v160z" />
<glyph unicode="&#x3e;" horiz-adv-x="1716" d="M217 1020v170l1282 -465v-166l-1282 -465v170l1038 377z" />
<glyph unicode="?" horiz-adv-x="1098" d="M235 104q11 56 57 95t103 39q55 0 86.5 -39t20.5 -95q-10 -55 -57 -94t-102 -39q-57 0 -88 38.5t-20 94.5zM271 1427q116 47 216 70t184 23q222 0 329.5 -107t72.5 -289q-37 -186 -170 -304t-366 -169l-50 -254h-123l64 328q185 43 294.5 144t139.5 257q27 137 -31 216 t-184 79q-114 0 -199 -65.5t-130 -188.5h-97z" />
<glyph unicode="@" horiz-adv-x="2048" d="M1237 248q-75 -82 -156.5 -122t-174.5 -40q-175 0 -259.5 125t-45.5 326t172 325.5t308 124.5q93 0 159 -40t109 -122l27 142h156l-150 -772q178 37 296 162t155 313q21 111 6.5 210t-65.5 183q-80 133 -219 203.5t-318 70.5q-90 0 -181.5 -19t-185.5 -58 q-220 -93 -368.5 -281.5t-196.5 -435.5q-32 -167 -9.5 -307.5t97.5 -243.5q86 -119 223 -181.5t310 -62.5q129 0 248.5 38t230.5 114l39 -70q-126 -93 -272 -139.5t-309 -46.5q-183 0 -336.5 66.5t-254.5 189.5q-104 127 -139 290.5t2 352.5q36 184 134.5 347t251.5 290 q151 126 337 194t380 68q214 0 374 -83t249 -239q57 -98 73.5 -213t-7.5 -239q-52 -268 -245 -423.5t-476 -158.5zM1283 485l20 105q24 125 -32 202.5t-171 77.5q-121 0 -205.5 -87.5t-115.5 -245.5q-31 -159 20 -246.5t173 -87.5q114 0 200 78.5t111 203.5z" />
<glyph unicode="A" horiz-adv-x="1479" d="M370 541h548l-136 710zM-157 0l20 106h131l802 1387h168l264 -1387h146l-20 -106h-543l20 106h166l-61 328h-628l-189 -328h164l-20 -106h-420z" />
<glyph unicode="B" horiz-adv-x="1505" d="M381 106h299q180 0 278.5 78t131.5 248q33 169 -34.5 246.5t-248.5 77.5h-299zM528 862h254q164 0 252 63t114 199q27 137 -36.5 199.5t-227.5 62.5h-254zM-32 0l20 106h190l249 1280h-190l21 107h737q226 0 322.5 -92.5t60.5 -276.5q-25 -133 -120 -212t-252 -97 q186 -24 265.5 -121.5t47.5 -261.5q-43 -222 -203.5 -327t-457.5 -105h-690z" />
<glyph unicode="C" horiz-adv-x="1567" d="M1376 395q-107 -209 -283.5 -316.5t-414.5 -107.5q-146 0 -261 50t-193 147q-90 112 -117 254.5t8 322.5q68 348 310.5 561.5t571.5 213.5q122 0 253.5 -32t277.5 -97l-66 -344h-113q-1 188 -95 277t-295 89q-239 0 -395 -169.5t-220 -498.5q-64 -328 26 -497.5 t329 -169.5q167 0 290.5 79.5t202.5 237.5h184z" />
<glyph unicode="D" horiz-adv-x="1642" d="M381 106h186q291 0 479 166t248.5 476t-63 474t-415.5 164h-186zM-32 0l20 106h190l249 1280h-190l21 107h594q386 0 563.5 -197t108.5 -548q-68 -352 -322.5 -550t-639.5 -198h-594z" />
<glyph unicode="E" horiz-adv-x="1495" d="M-32 0l20 106h190l249 1280h-190l21 107h1202l-64 -332h-123l40 209h-686l-97 -500h489l36 187h123l-96 -496h-123l36 187h-489l-121 -625h702l40 209h123l-64 -332h-1218z" />
<glyph unicode="F" horiz-adv-x="1421" d="M-32 0l20 106h190l249 1280h-190l21 107h1222l-64 -332h-123l40 209h-706l-97 -500h510l36 187h123l-96 -496h-123l36 187h-510l-125 -642h239l-20 -106h-632z" />
<glyph unicode="G" horiz-adv-x="1636" d="M1370 1047q1 187 -92.5 276.5t-291.5 89.5q-258 0 -417.5 -166t-224.5 -502q-64 -329 34 -498t352 -169q113 0 221.5 28t212.5 84l75 385h-281l21 107h484l-109 -557q-148 -77 -309 -115.5t-336 -38.5q-338 0 -500 211.5t-94 562.5q69 354 314 564.5t590 210.5 q128 0 258.5 -29.5t272.5 -89.5l-68 -354h-112z" />
<glyph unicode="H" horiz-adv-x="1786" d="M-32 0l20 106h190l249 1280h-190l21 107h583l-21 -107h-190l-100 -516h774l100 516h-190l21 107h583l-21 -107h-190l-249 -1280h190l-20 -106h-583l20 106h191l124 642h-774l-125 -642h190l-20 -106h-583z" />
<glyph unicode="I" horiz-adv-x="809" d="M381 106h190l-20 -106h-583l20 106h190l249 1280h-190l21 107h583l-21 -107h-190z" />
<glyph unicode="J" horiz-adv-x="821" d="M-345 -358l45 235h114q-16 -99 18.5 -147.5t122.5 -48.5q119 0 180.5 75t104.5 293l260 1337h-232l21 107h625l-21 -107h-190l-262 -1345q-48 -247 -168.5 -357t-340.5 -110q-71 0 -141 17t-136 51z" />
<glyph unicode="K" horiz-adv-x="1530" d="M-32 0l20 106h190l249 1280h-190l21 107h583l-21 -107h-190l-110 -565l753 565h-162l21 107h496l-21 -107h-168l-750 -563l577 -717h170l-20 -106h-347l-570 709l-118 -603h190l-20 -106h-583z" />
<glyph unicode="L" horiz-adv-x="1360" d="M-32 0l20 106h190l249 1280h-190l21 107h583l-21 -107h-190l-245 -1263h682l48 250h123l-72 -373h-1198z" />
<glyph unicode="M" horiz-adv-x="2097" d="M-32 0l20 106h190l249 1280h-201l21 107h435l317 -1063l731 1063h408l-21 -107h-199l-248 -1280h190l-20 -106h-584l20 106h190l225 1154l-715 -1041h-141l-309 1041l-225 -1154h190l-20 -106h-503z" />
<glyph unicode="N" horiz-adv-x="1792" d="M-42 0l20 106h201l249 1280h-201l21 107h383l666 -1178l208 1071h-200l21 107h524l-21 -107h-201l-275 -1415h-121l-711 1258l-219 -1123h201l-20 -106h-525z" />
<glyph unicode="O" horiz-adv-x="1679" d="M710 78q245 0 403 168.5t222 498.5q64 331 -28 499.5t-337 168.5q-246 0 -404 -168.5t-222 -499.5q-64 -330 28 -498.5t338 -168.5zM689 -29q-152 0 -269.5 50t-195.5 147q-90 112 -117 254t8 323t117 323.5t216 254.5q117 98 253 147.5t290 49.5q325 0 483.5 -213 t90.5 -562q-35 -179 -118 -322.5t-216 -254.5q-117 -98 -253 -147.5t-289 -49.5z" />
<glyph unicode="P" horiz-adv-x="1378" d="M509 760h264q149 0 242.5 80.5t122.5 232.5q30 153 -32.5 233t-211.5 80h-264zM-32 0l20 106h190l249 1280h-190l21 107h706q224 0 333 -113.5t71 -306.5q-37 -192 -190 -306t-377 -114h-313l-107 -547h231l-20 -106h-624z" />
<glyph unicode="Q" horiz-adv-x="1679" d="M743 -29q-343 0 -506 211q-113 147 -113 366q0 92 20 197q35 181 117.5 323.5t215.5 254.5q117 98 253 147.5t290 49.5q325 0 483 -213q111 -149 111 -365q0 -92 -20 -197q-58 -296 -247 -497.5t-464 -259.5q41 -67 112 -99t180 -32h250l-36 -185h-117q-265 0 -375 82 q-108 82 -154 217zM739 78q245 0 403 168.5t222 498.5q26 136 26 245q0 155 -54 254q-92 169 -337 169q-246 0 -404 -168.5t-222 -499.5q-26 -135 -26 -244q0 -155 54 -255q92 -168 338 -168z" />
<glyph unicode="R" horiz-adv-x="1542" d="M980 741q66 -19 108 -64.5t66 -127.5l130 -443h182l-20 -106h-352l-141 475q-40 138 -88 178.5t-146 40.5h-223l-115 -588h211l-20 -106h-604l20 106h190l249 1280h-190l21 107h757q218 0 316.5 -104t61.5 -295q-30 -154 -134 -242.5t-279 -110.5zM517 801h295 q151 0 236.5 71.5t115 221.5t-29 221t-209.5 71h-295z" />
<glyph unicode="S" horiz-adv-x="1403" d="M59 72l66 340l115 -1q-28 -170 49.5 -251.5t268.5 -81.5q178 0 285.5 70.5t133.5 205.5q21 108 -24.5 166t-216.5 113l-185 59q-202 65 -270.5 162t-35.5 266q37 190 192.5 295t399.5 105q104 0 223.5 -22.5t250.5 -65.5l-61 -318h-113q13 158 -61.5 228.5t-255.5 70.5 q-158 0 -253 -64.5t-119 -187.5q-21 -107 29 -168t240 -121l174 -55q191 -61 259 -155.5t37 -253.5q-42 -217 -202.5 -327t-435.5 -110q-123 0 -245.5 25t-244.5 76z" />
<glyph unicode="T" horiz-adv-x="1366" d="M246 0l20 106h191l247 1268h-439l-45 -233h-123l68 352h1326l-68 -352h-123l45 233h-439l-247 -1268h191l-20 -106h-584z" />
<glyph unicode="U" horiz-adv-x="1726" d="M414 1386h-191l21 107h584l-21 -107h-191l-150 -772q-56 -286 16 -399t301 -113t344 113t171 399l150 772h-191l21 107h504l-21 -107h-190l-154 -792q-66 -341 -224.5 -482t-472.5 -141t-420 142t-40 481z" />
<glyph unicode="V" horiz-adv-x="1479" d="M482 1386l219 -1146l662 1146h-168l21 107h438l-21 -107h-145l-802 -1386h-172l-261 1386h-149l21 107h544l-21 -107h-166z" />
<glyph unicode="W" horiz-adv-x="2105" d="M1416 0h-164l-106 1214l-578 -1214h-164l-122 1386h-148l21 107h545l-21 -107h-186l97 -1103l575 1210h162l108 -1223l530 1116h-172l21 107h430l-21 -107h-147z" />
<glyph unicode="X" horiz-adv-x="1458" d="M657 639l-469 -533h193l-20 -106h-494l20 106h172l552 627l-309 653h-160l21 107h592l-21 -107h-176l227 -481l422 481h-192l21 107h489l-21 -107h-168l-506 -575l334 -705h160l-21 -106h-592l20 106h178z" />
<glyph unicode="Y" horiz-adv-x="1352" d="M242 0l20 106h191l105 537l-317 743h-140l21 107h555l-21 -107h-174l256 -604l490 604h-168l21 107h434l-21 -107h-141l-589 -724l-109 -556h191l-20 -106h-584z" />
<glyph unicode="Z" horiz-adv-x="1423" d="M-53 0l14 72l1182 1298h-772l-43 -223h-123l67 346h1180l-14 -72l-1182 -1298h844l40 209h122l-64 -332h-1251z" />
<glyph unicode="[" horiz-adv-x="799" d="M353 1556h465l-20 -106h-274l-314 -1614h274l-20 -106h-465z" />
<glyph unicode="\" horiz-adv-x="690" d="M324 1493l202 -1683h-160l-202 1683h160z" />
<glyph unicode="]" horiz-adv-x="799" d="M800 1556l-354 -1826h-465l20 106h274l314 1614h-274l20 106h465z" />
<glyph unicode="^" horiz-adv-x="1716" d="M956 1493l543 -557h-153l-488 381l-487 -381h-154l543 557h196z" />
<glyph unicode="_" horiz-adv-x="1024" d="M1024 -403v-80h-1024v80h1024z" />
<glyph unicode="`" horiz-adv-x="1024" d="M564 1636l186 -376h-117l-266 376h197z" />
<glyph unicode="a" horiz-adv-x="1221" d="M744 166q-133 -195 -348 -195q-176 0 -265 119q-62 84 -62 204q0 51 11 108q68 353 314 535q209 155 462 155q170 0 228 -29l-186 -957h158l-20 -106h-324zM263 300q0 -214 207 -214q126 0 211.5 100.5t123.5 292.5l93 482v0q0 29 -80 29q-192 0 -341 -150 q-148 -151 -201 -425q-13 -64 -13 -115z" />
<glyph unicode="b" horiz-adv-x="1311" d="M369 1450h-177l21 106h361l-128 -659q73 100 166 147.5t216 47.5q196 0 290 -155q62 -102 62 -245q0 -75 -17 -160q-49 -250 -203 -405.5t-350 -155.5q-123 0 -197.5 47.5t-108.5 147.5l-32 -166h-184zM365 479q-16 -79 -16 -142q0 -91 32 -151q54 -100 194 -100 q141 0 235.5 113t137.5 333q20 101 20 180q0 92 -28 153q-50 112 -192 112q-140 0 -233 -101t-130 -292z" />
<glyph unicode="c" horiz-adv-x="1147" d="M1012 319q-72 -170 -200.5 -259t-304.5 -89q-232 0 -343 153q-77 107 -77 261q0 69 15 147q50 255 220.5 407.5t402.5 152.5q101 0 196.5 -23.5t186.5 -71.5l-52 -272h-107v26q0 120 -52 178q-58 64 -189 64q-149 0 -247.5 -115.5t-143.5 -345.5q-20 -105 -20 -187 q0 -96 28 -159q53 -116 203 -116q119 0 202 62t134 187h148z" />
<glyph unicode="d" horiz-adv-x="1311" d="M1229 1556l-302 -1556h-184l32 166q-74 -100 -166.5 -147.5t-215.5 -47.5q-196 0 -290 155q-63 103 -63 247q0 74 17 159q49 250 203 405t351 155q123 0 197 -47.5t109 -147.5l107 553h-174l21 106h358zM836 479l20 105q15 78 15 141q0 91 -32 151q-53 101 -193 101 q-142 0 -236.5 -112t-137.5 -333q-20 -101 -20 -179q0 -93 28 -154q50 -113 192 -113q140 0 233 100.5t131 292.5z" />
<glyph unicode="e" horiz-adv-x="1212" d="M300 408q-4 -38 -4 -72q0 -94 34 -156q59 -110 217 -110q116 0 173 35q102 63 126 144h135q-40 -127 -189 -216q-104 -62 -310 -62t-317 153q-78 107 -78 262q0 68 15 145q49 253 218 407t409 154q391 0 391 -277q0 -203 -205 -302q-209 -101 -615 -105zM813 632 q112 66 112 190q0 171 -227 171q-134 0 -227 -102t-150 -377q321 15 492 118z" />
<glyph unicode="f" horiz-adv-x="758" d="M1020 1305h-97q4 21 4 40q0 46 -24 74q-34 39 -113 39q-103 0 -156 -56.5t-81 -201.5l-27 -137h297l-21 -107h-297l-198 -1022q-35 -178 -145 -269t-289 -91l12 98q105 0 156 56q53 60 82 206l198 1022h-176l21 107h176l26 133q35 179 145 269q110 91 289 91 q67 0 131.5 -12t126.5 -37z" />
<glyph unicode="g" horiz-adv-x="1311" d="M1223 1063l-203 -1040q-46 -238 -194 -353q-161 -125 -384 -125q-105 0 -197 19t-173 57l44 223h96q-3 -104 55 -152t183 -48q162 0 255 92q93 90 131 287l28 143q-73 -100 -166 -147.5t-210 -47.5q-176 0 -265 119q-56 75 -62 179q-4 61 10 133q69 353 314 535 q209 154 453 155q224 1 285 -29zM1019 956q-1 34 -109 34q-195 0 -342 -150q-147 -151 -201 -425q-15 -81 -11 -142q4 -62 29 -104q49 -83 177 -83q140 0 233 100.5t130 292.5l20 105z" />
<glyph unicode="h" horiz-adv-x="1319" d="M99 0l282 1450h-176l20 106h360l-132 -682q72 108 164 163t200 55q176 0 239 -101q39 -61 39 -163q0 -67 -17 -152l-111 -570h164l-20 -106h-349l120 618q20 103 20 172q0 61 -16 94q-33 72 -155 72q-128 0 -213.5 -93t-119.5 -271l-115 -592h-184z" />
<glyph unicode="i" horiz-adv-x="655" d="M323 1393q9 46 49 80t87 34q46 0 73 -34q21 -26 21 -58q0 -11 -3 -22q-9 -47 -48.5 -80t-86.5 -33t-74 33q-20 25 -20 57q0 11 2 23zM308 106h174l-20 -106h-358l185 956h-176l21 107h360z" />
<glyph unicode="j" horiz-adv-x="635" d="M374 1393q8 46 48.5 80t87.5 34q46 0 73 -34q20 -26 20 -58q0 -11 -2 -22q-10 -47 -48.5 -80t-86.5 -33q-47 0 -75 33q-20 25 -20 57q0 11 3 23zM334 956h-174l20 107h358l-226 -1167q-32 -164 -148 -257.5t-287 -93.5q-72 0 -134 16.5t-118 49.5l43 219h95 q-3 -25 -3 -46q0 -62 25 -95q34 -45 116 -45q91 0 146 61.5t81 190.5z" />
<glyph unicode="k" horiz-adv-x="1241" d="M676 664l295 -558h153l-20 -106h-295l-290 543l-171 -135l-79 -408h-184l282 1450h-177l20 106h361l-197 -1013l529 413h-153l20 107h299l-20 -107z" />
<glyph unicode="l" horiz-adv-x="655" d="M289 106h174l-20 -106h-358l282 1450h-177l20 106h361z" />
<glyph unicode="m" horiz-adv-x="1942" d="M1121 856q76 117 170 176.5t204 59.5q167 0 229 -104q37 -62 37 -163q0 -66 -16 -149l-111 -570h166l-20 -106h-350l127 655q15 78 15 134q0 62 -18 98q-34 69 -145 69q-123 0 -205.5 -93t-117.5 -271l-115 -592h-184l129 662q14 75 14 129q0 62 -18 97q-35 68 -146 68 q-123 0 -205.5 -93t-117.5 -271l-115 -592h-184l186 958h-176l20 105h360l-36 -189q71 106 161 162t190 56q124 0 195 -61.5t77 -174.5z" />
<glyph unicode="n" horiz-adv-x="1319" d="M144 0l186 956h-176l20 107h360l-36 -189q72 108 164 163t200 55q176 0 240 -101q38 -61 38 -163q0 -67 -17 -152l-111 -570h164l-20 -106h-349l120 618q20 103 20 172q0 61 -16 96q-34 72 -155 72q-128 0 -213 -93.5t-120 -272.5l-115 -592h-184z" />
<glyph unicode="o" horiz-adv-x="1233" d="M526 70q148 0 246.5 117t142.5 345q20 104 20 185q0 96 -28 159q-53 117 -201 117t-246.5 -116.5t-142.5 -344.5q-20 -104 -20 -184q0 -97 29 -161q53 -117 200 -117zM507 -29q-232 0 -343 153q-77 107 -77 261q0 69 15 147q49 254 219.5 407t403.5 153t344 -153 q76 -106 76 -260q0 -69 -15 -147q-49 -254 -219.5 -407.5t-403.5 -153.5z" />
<glyph unicode="p" horiz-adv-x="1311" d="M469 584l-21 -105q-15 -79 -15 -142q0 -91 32 -151q54 -100 194 -100q141 0 235.5 113t137.5 333q19 101 19 180q0 92 -27 153q-51 112 -192 112q-140 0 -233 -101t-130 -292zM357 956h-177l21 107h361l-32 -166q73 100 166 147.5t216 47.5q196 0 289 -155 q62 -102 62 -245q0 -75 -16 -160q-49 -250 -203 -405.5t-350 -155.5q-123 0 -197.5 47.5t-108.5 147.5l-116 -592h-184z" />
<glyph unicode="q" horiz-adv-x="1311" d="M859 166q-69 -100 -153 -148q-84 -47 -195 -47q-176 0 -265 119q-56 75 -62 179q-4 61 10 133q69 353 314 535q209 154 454 155q194 1 255 -29l-269 -1383h177l-21 -106h-361zM933 990q-192 0 -341 -150q-148 -151 -202 -425q-15 -81 -11 -142q4 -62 29 -104 q49 -83 177 -83q126 0 211.5 100.5t122.5 292.5l94 482q1 29 -80 29z" />
<glyph unicode="r" horiz-adv-x="979" d="M1080 1065l-52 -266h-106q3 20 3 37q0 52 -24 81q-31 39 -106 39q-136 0 -227 -94t-125 -270l-115 -592h-184l186 958h-176l20 105h360l-36 -189q75 111 170.5 164.5t217.5 53.5q45 0 93 -7t101 -20z" />
<glyph unicode="s" horiz-adv-x="1051" d="M71 307h106q-4 -29 -4 -55q0 -182 247 -182q248 0 284 182q3 18 3 50q0 31 -34 68.5t-177 86.5l-125 45q-128 44 -169.5 100.5t-41.5 121.5q0 26 5 56q29 146 152 229t301 83q177 0 363 -86l-45 -232h-106q4 23 4 43q0 73 -50.5 124.5t-167.5 51.5q-235 0 -267 -164 q-4 -17 -4 -47q0 -31 32.5 -66t159.5 -77l137 -45q142 -47 195 -118q37 -50 37 -99q0 -210 -168 -319q-132 -87 -334 -87t-381 88z" />
<glyph unicode="t" horiz-adv-x="823" d="M274 956h-162l21 107h162l64 330h185l-64 -330h346l-21 -107h-346l-131 -675q-15 -79 -15 -125q0 -32 7 -48q19 -38 89 -38q72 0 113.5 42.5t61.5 137.5h139q-36 -145 -120 -212t-229 -67q-159 0 -212 71q-32 43 -32 123q0 51 13 116z" />
<glyph unicode="u" horiz-adv-x="1319" d="M991 1063h184l-186 -957h174l-20 -106h-358l36 188q-72 -106 -163.5 -161.5t-198.5 -55.5q-177 0 -241 101q-39 60 -39 163q0 67 17 152l110 569h-166l21 107h351l-120 -619q-20 -103 -20 -171q0 -61 16 -95q33 -72 155 -72q128 0 213.5 94t119.5 273z" />
<glyph unicode="v" horiz-adv-x="1157" d="M538 0h-135l-205 956h-121l20 107h275l180 -838q115 100 192 227q160 264 217 504h-122l21 107h275q-109 -412 -247 -643q-120 -200 -350 -420z" />
<glyph unicode="w" horiz-adv-x="1753" d="M1197 233q133 144 163 197q110 200 218 526l-155 -1l21 108h267l-21 -108h-1q-102 -371 -199 -550q-143 -255 -300 -405h-153l-109 795l-417 -795h-147l-129 956l-120 -2l21 109h274l112 -830l435 830h129z" />
<glyph unicode="x" horiz-adv-x="1155" d="M131 0h-125l469 510l-236 446h-131l20 107h270l221 -414l381 414h125l-460 -500l243 -457h139l-20 -106h-279l-226 424z" />
<glyph unicode="y" horiz-adv-x="1157" d="M1178 1054q-99 -572 -273 -874q-255 -443 -460 -576q-91 -59 -331 -59q-47 0 -94.5 8t-95.5 23l40 203h94q-2 -16 -2 -31q0 -42 18 -66q25 -34 90 -34q176 0 329 153l-251 1155h-121l21 107h275l236 -1055q161 241 200 340q126 311 151 599h-121l21 107h274z" />
<glyph unicode="z" horiz-adv-x="1079" d="M815 975q108 0 213 88h60l-16 -86l-727 -758q10 -3 39 -12q34 -11 68 -33l49 -30q94 -57 162 -57q131 0 285 150l-24 -121q-171 -168 -301 -168q-79 2 -190 71t-181 69q-108 0 -213 -88h-60l16 86l728 757q-11 4 -40 13q-34 11 -68 33l-49 30q-94 57 -162 57 q-131 0 -285 -150l24 121q171 168 301 168q79 -2 190 -71t181 -69z" />
<glyph unicode="{" d="M884 -229l-21 -105h-62q-249 0 -319 74t-27 295l50 258q29 150 -13.5 208t-184.5 58h-61l20 105h61q142 0 207.5 58t94.5 208l50 258q43 221 142 294.5t348 73.5h62l-21 -104h-68q-141 0 -192.5 -44t-78.5 -185l-56 -287q-31 -158 -94 -226t-199 -98q126 -34 162 -101 t5 -224l-56 -287q-27 -141 7.5 -185t175.5 -44h68z" />
<glyph unicode="|" horiz-adv-x="690" d="M426 1565v-2048h-162v2048h162z" />
<glyph unicode="}" d="M93 -229h70q140 0 191 43.5t78 185.5l56 287q31 157 93 224t199 101q-124 30 -160.5 98t-5.5 226l56 287q28 142 -6.5 185.5t-174.5 43.5h-70l21 104h63q249 0 318 -73.5t26 -294.5l-50 -258q-29 -150 13.5 -208t184.5 -58h62l-20 -105h-62q-142 0 -207.5 -58t-94.5 -208 l-50 -258q-43 -221 -141 -295t-347 -74h-63z" />
<glyph unicode="~" horiz-adv-x="1716" d="M1499 807v-148q-100 -88 -190 -130t-183 -42q-96 0 -270 66l-10 4q-11 4 -33 13q-147 57 -242 57q-92 0 -178.5 -36.5t-175.5 -113.5v152q100 87 189.5 127.5t183.5 40.5q96 0 270 -66l10 -4q11 -4 31 -12q145 -58 242 -58q92 0 180 37t176 113z" />
<glyph unicode="&#xa1;" horiz-adv-x="823" d="M401 1389q11 56 56.5 94.5t102.5 38.5q55 0 86.5 -39t20.5 -94q-11 -56 -57.5 -95t-101.5 -39q-57 0 -87.5 39t-19.5 95zM135 0l227 821l49 252h123l-49 -252l-92 -821h-258z" />
<glyph unicode="&#xa2;" d="M719 991q-132 -15 -219 -130t-129 -329q-41 -215 1 -330t168 -130zM1063 319q-65 -154 -175.5 -240.5t-266.5 -105.5l-53 -270h-100l53 270q-216 19 -314.5 169t-52.5 390q48 242 204.5 391.5t379.5 166.5l52 266h100l-52 -266q90 -8 169.5 -31t152.5 -62l-53 -272h-106 q5 123 -40 188.5t-142 77.5l-179 -919q92 12 162.5 75.5t112.5 171.5h148z" />
<glyph unicode="&#xa3;" d="M1192 1225h-105q9 95 -38 145.5t-143 50.5q-127 0 -202.5 -77.5t-107.5 -241.5l-57 -295h412l-21 -107h-412l-112 -579h478l44 227h116l-68 -348h-987l21 106h193l115 594h-193l21 107h193l57 295q40 205 175.5 311.5t356.5 106.5q85 0 163.5 -12.5t148.5 -37.5z" />
<glyph unicode="&#xa4;" d="M901 985l209 207l94 -94l-209 -209q43 -60 63.5 -121t20.5 -127q0 -69 -20.5 -128t-65.5 -116l207 -207l-96 -94l-207 205q-56 -44 -115.5 -65t-128.5 -21q-64 0 -126.5 20.5t-123.5 61.5l-204 -205l-95 94l205 207q-41 62 -61.5 123t-20.5 125q0 70 21 129.5t65 116.5 l-207 207l95 94l207 -207q56 44 116 65t129 21q66 0 127 -20t121 -62zM922 643q0 112 -77.5 189t-191.5 77q-112 0 -190 -77t-78 -189q0 -114 77.5 -192t190.5 -78t191 78.5t78 191.5z" />
<glyph unicode="&#xa5;" d="M215 0l20 106h191l72 367h-404l20 105h404l13 65l-55 141h-322l21 105h263l-191 497h-139l21 107h553l-21 -107h-175l226 -604l456 604h-167l21 107h432l-21 -107h-142l-380 -497h272l-21 -105h-332l-94 -122l-17 -84h403l-20 -105h-403l-72 -367h190l-20 -106h-582z" />
<glyph unicode="&#xa6;" horiz-adv-x="690" d="M426 408v-758h-162v758h162zM426 1432v-758h-162v758h162z" />
<glyph unicode="&#xa7;" horiz-adv-x="1024" d="M432 936q-77 -46 -112.5 -87.5t-45.5 -94.5q-26 -132 298 -335l28 -18q66 38 104.5 86t49.5 105q15 75 -41.5 142t-280.5 202zM985 1464l-39 -202h-92q12 72 -32 113.5t-132 41.5q-100 0 -167 -48.5t-83 -131.5q-19 -97 200 -234q23 -15 34 -22q174 -109 222 -184 t28 -174q-18 -95 -83 -158t-187 -107q69 -47 93 -110t6 -154q-25 -131 -142.5 -210t-290.5 -79q-90 0 -167 13.5t-149 42.5l41 209l92 -1q-14 -80 32 -120.5t153 -40.5q104 0 174 49t87 133q22 113 -182 240q-18 12 -28 18q-192 122 -240.5 197t-29.5 174q18 94 90 160.5 t187 97.5q-72 49 -99.5 112t-11.5 142q25 130 140.5 209.5t281.5 79.5q78 0 151 -14t143 -42z" />
<glyph unicode="&#xa8;" horiz-adv-x="1024" d="M534 1569q48 0 76 -35q27 -34 18 -82q-10 -51 -49 -84q-40 -33 -91 -33q-50 0 -76 33q-27 33 -17 84q9 48 51 82q41 35 88 35zM924 1569q47 0 75 -35q27 -34 18 -82q-10 -51 -49 -84q-40 -33 -90 -33q-51 0 -77 33q-27 33 -17 84q9 48 51 82q41 35 89 35z" />
<glyph unicode="&#xa9;" horiz-adv-x="2048" d="M1376 573q-27 -131 -117.5 -201.5t-232.5 -70.5q-187 0 -298.5 120t-111.5 320q0 201 112.5 322t297.5 121q80 0 157.5 -18.5t164.5 -57.5v-213h-84q-17 109 -74 160t-162 51q-119 0 -179.5 -91.5t-60.5 -273.5q0 -181 60 -271.5t178 -90.5q97 0 153.5 47.5t77.5 146.5 h119zM1024 1485q152 0 283.5 -55t240.5 -164t163 -240t54 -285q0 -152 -54 -282.5t-163 -239.5t-240.5 -164t-283.5 -55t-283.5 55t-240.5 164t-163 239.5t-54 282.5q0 154 54 285t163 240t240.5 164t283.5 55zM1024 1382q-131 0 -244 -47t-207 -141q-93 -93 -140.5 -207.5 t-47.5 -245.5q0 -130 47.5 -243t140.5 -207q94 -94 207 -141.5t244 -47.5q132 0 245.5 47.5t207.5 141.5q93 93 139.5 206t46.5 244q0 133 -47 246.5t-139 206.5q-94 94 -207.5 141t-245.5 47z" />
<glyph unicode="&#xaa;" horiz-adv-x="973" d="M613 756l34 178q-60 -77 -124 -121q-66 -43 -139 -57q-33 -6 -61 -6q-94 0 -145 67q-45 58 -45 152q0 46 10 100q33 166 139 285q107 118 246 145q29 5 54 5q40 0 72 -13q53 -22 87 -81l15 84h126l-126 -650h128l-17 -88h-254zM685 1130l17 86q6 32 6 59q0 61 -31 97 q-33 41 -93 41q-20 0 -42 -4q-97 -18 -164 -100q-68 -83 -93 -213q-10 -51 -10 -92q0 -64 24 -102q31 -48 96 -48q19 0 41 4q91 17 160 93t89 179zM92 639h698l-20 -104h-698z" />
<glyph unicode="&#xab;" horiz-adv-x="1253" d="M1150 1059l-22 -115l-364 -344l230 -344l-22 -115l-388 418l16 82zM716 1059l-22 -115l-364 -344l230 -344l-22 -115l-388 418l16 82z" />
<glyph unicode="&#xac;" horiz-adv-x="1716" d="M217 862h1282v-575h-160v413h-1122v162z" />
<glyph unicode="&#xad;" horiz-adv-x="692" d="M105 627h512l-30 -156h-512z" />
<glyph unicode="&#xae;" horiz-adv-x="2048" d="M895 791h125q83 0 124.5 38t41.5 113q0 74 -42 112t-124 38h-125v-301zM1141 754q42 -14 71.5 -39.5t49.5 -65.5l116 -229h76v-68h-190l-131 254q-35 70 -66 93.5t-80 23.5h-92v-303h84v-68h-317v68h83v672h-83v67h415q128 0 193 -56t65 -165q0 -83 -48 -128.5 t-146 -55.5zM1024 1382q-131 0 -244 -47t-207 -141q-93 -93 -140.5 -207.5t-47.5 -245.5q0 -130 47.5 -243t140.5 -207q94 -94 207 -141.5t244 -47.5q132 0 245.5 47.5t207.5 141.5q93 93 139.5 206t46.5 244q0 133 -47 246.5t-139 206.5q-94 94 -207.5 141t-245.5 47z M1024 1485q152 0 283.5 -55t240.5 -164t163 -240t54 -285q0 -152 -54 -282.5t-163 -239.5t-240.5 -164t-283.5 -55t-283.5 55t-240.5 164t-163 239.5t-54 282.5q0 154 54 285t163 240t240.5 164t283.5 55z" />
<glyph unicode="&#xaf;" horiz-adv-x="1024" d="M396 1526h598l-28 -148h-598z" />
<glyph unicode="&#xb0;" horiz-adv-x="1024" d="M512 1382q-76 0 -128 -52.5t-52 -129.5q0 -76 51.5 -127t128.5 -51q76 0 128 51.5t52 126.5t-53 128.5t-127 53.5zM512 1520q64 0 123 -24.5t102 -70.5q46 -45 69 -102t23 -123q0 -132 -92.5 -223.5t-226.5 -91.5q-135 0 -225 90t-90 225q0 134 92 227t225 93z" />
<glyph unicode="&#xb1;" horiz-adv-x="1716" d="M938 1284v-391h561v-162h-561v-391h-160v391h-561v162h561v391h160zM217 160h1282v-160h-1282v160z" />
<glyph unicode="&#xb2;" horiz-adv-x="821" d="M209 1296h-70l31 158q72 32 145.5 49t142.5 17q138 0 210.5 -66t52.5 -170q-24 -122 -252 -296l-22 -17l-280 -215h385l21 108h74l-38 -196h-602l15 75l334 254q101 77 150 138t62 127q16 85 -23 134.5t-123 49.5q-78 0 -132 -38t-81 -112z" />
<glyph unicode="&#xb3;" horiz-adv-x="821" d="M199 1468q78 26 147.5 39t128.5 13q138 0 202 -54t45 -153q-14 -72 -76.5 -122t-161.5 -67q116 -16 165 -75.5t30 -159.5q-23 -114 -122 -175t-262 -61q-72 0 -139 14t-129 42l33 170l69 -1q-9 -74 32.5 -112.5t133.5 -38.5q94 0 153.5 44t75.5 126q18 93 -23.5 140.5 t-142.5 47.5h-53l14 74h27q97 0 153.5 37t71.5 111q13 67 -20.5 103t-109.5 36q-82 0 -132 -32t-69 -97h-70z" />
<glyph unicode="&#xb4;" horiz-adv-x="1024" d="M858 1638h199l-414 -376h-117z" />
<glyph unicode="&#xb5;" horiz-adv-x="1331" d="M1044 1063h184l-187 -959h174l-20 -104h-358l37 188q-73 -106 -157.5 -161.5t-174.5 -55.5q-57 0 -100.5 18t-75.5 54l-91 -469h-184l269 1382h-166l21 107h350l-121 -619q-19 -102 -19 -170q0 -62 16 -96q34 -72 155 -72q128 0 213 94t120 273z" />
<glyph unicode="&#xb6;" d="M797 1493h538l-21 -107h-118l-307 -1583h-107l307 1583h-231l-307 -1583h-107l164 846q-212 17 -308 127.5t-60 294.5q37 190 189.5 306t367.5 116z" />
<glyph unicode="&#xb7;" horiz-adv-x="651" d="M190 711q11 56 57 94.5t103 38.5q55 0 86.5 -39t20.5 -94q-11 -56 -57.5 -94.5t-101.5 -38.5q-57 0 -88 38t-20 95z" />
<glyph unicode="&#xb8;" horiz-adv-x="1024" d="M616 0q52 -64 72.5 -120t11.5 -105q-16 -81 -87.5 -125.5t-183.5 -44.5q-42 0 -85 6t-87 18l26 131q37 -17 75 -25.5t73 -8.5q57 0 95 26.5t47 71.5q6 28 -7.5 72t-46.5 104h97z" />
<glyph unicode="&#xb9;" horiz-adv-x="821" d="M95 668l16 84h172l123 634l-221 -106l18 94l265 129h102l-146 -751h173l-16 -84h-486z" />
<glyph unicode="&#xba;" horiz-adv-x="963" d="M439 813q106 0 175 79.5t99.5 235.5t-8 236t-143.5 80q-104 0 -174.5 -81t-99.5 -235q-31 -155 7.5 -235t143.5 -80zM425 737q-175 0 -260.5 107.5t-50.5 283.5q34 177 161 284.5t302 107.5t260 -107.5t50.5 -284.5t-160.5 -284t-302 -107zM61 639h688l-20 -104h-688z " />
<glyph unicode="&#xbb;" horiz-adv-x="1253" d="M716 1059l388 -418l-16 -82l-550 -418l22 115l364 344l-230 344zM282 1059l388 -418l-16 -82l-550 -418l22 115l363 344l-229 344z" />
<glyph unicode="&#xbc;" horiz-adv-x="1985" d="M1462 303l79 407l-387 -407h308zM1691 0h-434l16 84h146l27 137h-398l16 84l503 530h141l-103 -532h164l-16 -82h-164l-27 -137h145zM95 668l16 84h172l123 634l-221 -106l18 94l265 129h102l-146 -751h173l-16 -84h-486zM1539 1520h150l-1244 -1549h-150z" />
<glyph unicode="&#xbd;" horiz-adv-x="1985" d="M95 668l16 84h172l123 634l-221 -106l18 94l265 129h102l-146 -751h173l-16 -84h-486zM1539 1520h150l-1244 -1549h-150zM1242 628h-70l31 158q72 32 145.5 49t142.5 17q138 0 210.5 -66t52.5 -170q-24 -122 -252 -296l-22 -17l-280 -215h385l21 108h74l-38 -196h-602 l15 75l334 254q101 77 150 138t62 127q16 85 -23 134.5t-123 49.5q-78 0 -132 -38t-81 -112z" />
<glyph unicode="&#xbe;" horiz-adv-x="1985" d="M1462 303l79 407l-387 -407h308zM1691 0h-434l16 84h146l27 137h-398l16 84l503 530h141l-103 -532h164l-16 -82h-164l-27 -137h145zM199 1468q78 26 147.5 39t128.5 13q138 0 202 -54t45 -153q-14 -72 -76.5 -122t-161.5 -67q116 -16 165 -75.5t30 -159.5 q-23 -114 -122 -175t-262 -61q-72 0 -139 14t-129 42l33 170l69 -1q-9 -74 32.5 -112.5t133.5 -38.5q94 0 153.5 44t75.5 126q18 93 -23.5 140.5t-142.5 47.5h-53l14 74h27q97 0 153.5 37t71.5 111q13 67 -20.5 103t-109.5 36q-82 0 -132 -32t-69 -97h-70zM1539 1520h150 l-1244 -1549h-150z" />
<glyph unicode="&#xbf;" horiz-adv-x="1098" d="M903 1389q-11 -56 -57 -95t-102 -39q-55 0 -86.5 39t-20.5 95q10 55 57 94t102 39q57 0 87.5 -38.5t19.5 -94.5zM867 66q-116 -47 -215.5 -70t-184.5 -23q-221 0 -329 107t-73 289q37 186 170.5 304t366.5 169l50 254h123l-64 -328q-185 -43 -295 -144t-140 -257 q-27 -137 31.5 -216t184.5 -79q113 0 198.5 65.5t130.5 188.5h96z" />
<glyph unicode="&#xc0;" horiz-adv-x="1479" d="M370 541h548l-136 710zM-157 0l20 106h131l802 1387h168l264 -1387h146l-20 -106h-543l20 106h166l-61 328h-628l-189 -328h164l-20 -106h-420zM866 1899l131 -264h-117l-210 264h196z" />
<glyph unicode="&#xc1;" horiz-adv-x="1479" d="M370 541h548l-136 710zM-157 0l20 106h131l802 1387h168l264 -1387h146l-20 -106h-543l20 106h166l-61 328h-628l-189 -328h164l-20 -106h-420zM1051 1899h197l-314 -264h-117z" />
<glyph unicode="&#xc2;" horiz-adv-x="1479" d="M370 541h548l-136 710zM-157 0l20 106h131l802 1387h168l264 -1387h146l-20 -106h-543l20 106h166l-61 328h-628l-189 -328h164l-20 -106h-420zM852 1899h176l179 -264h-116l-171 161l-235 -161h-116z" />
<glyph unicode="&#xc3;" horiz-adv-x="1479" d="M370 541h548l-136 710zM-157 0l20 106h131l802 1387h168l264 -1387h146l-20 -106h-543l20 106h166l-61 328h-628l-189 -328h164l-20 -106h-420zM913 1715l-43 28q-17 13 -36 20t-36 7q-39 0 -71 -29q-31 -28 -44 -74l-96 1q21 100 84 159q62 59 147 59q36 0 66 -9 q29 -9 78 -40l44 -26q20 -13 41 -20q20 -7 37 -7q41 0 70 27q29 28 38 75h97q-22 -105 -85 -162q-62 -57 -156 -57q-67 0 -131 45z" />
<glyph unicode="&#xc4;" horiz-adv-x="1479" d="M370 541h548l-136 710zM-157 0l20 106h131l802 1387h168l264 -1387h146l-20 -106h-543l20 106h166l-61 328h-628l-189 -328h164l-20 -106h-420zM750 1884q48 0 75 -35q28 -35 19 -81q-10 -50 -50 -83q-40 -34 -90 -34q-49 0 -76 34q-27 33 -17 83q9 46 50 81q42 35 89 35 zM1140 1884q47 0 74 -35q28 -35 19 -81q-10 -50 -50 -83q-40 -34 -89 -34q-50 0 -77 34q-27 33 -17 83q9 46 50 81q42 35 90 35z" />
<glyph unicode="&#xc5;" horiz-adv-x="1479" d="M1018.5 1626q12.5 63 -23.5 107.5t-99 44.5q-64 0 -116 -43.5t-65 -108.5q-12 -63 23 -107t99 -44q63 0 116 44t65.5 107zM330 541h546l-134 710zM-197 0l21 106h131l737 1278q-65 37 -90.5 98t-9.5 144q22 114 118 194.5t210 80.5t178.5 -80.5t42.5 -194.5 q-15 -80 -66.5 -143.5t-130.5 -98.5l244 -1278h147l-21 -106h-543l21 106h166l-61 328h-628l-189 -328h164l-21 -106h-420z" />
<glyph unicode="&#xc6;" horiz-adv-x="2050" d="M386 541h489l164 845h-100zM580 0l20 106h190l64 328h-538l-216 -328h164l-20 -106h-424l20 106h131l839 1280h-215l21 107h1456l-64 -332h-123l40 209h-688l-97 -500h492l36 187h123l-96 -496h-123l36 187h-492l-121 -625h705l40 209h123l-64 -332h-1219z" />
<glyph unicode="&#xc7;" horiz-adv-x="1567" d="M1376 395q-107 -209 -283.5 -316.5t-414.5 -107.5q-146 0 -261 50t-193 147q-90 112 -117 254.5t8 322.5q68 348 310.5 561.5t571.5 213.5q122 0 253.5 -32t277.5 -97l-66 -344h-113q-1 188 -95 277t-295 89q-239 0 -395 -169.5t-220 -498.5q-64 -328 26 -497.5 t329 -169.5q167 0 290.5 79.5t202.5 237.5h184zM738 0q52 -64 72.5 -120t11.5 -105q-16 -81 -87.5 -125.5t-183.5 -44.5q-42 0 -85 6t-87 18l26 131q37 -17 75 -25.5t73 -8.5q57 0 95 26.5t47 71.5q6 28 -7.5 72t-46.5 104h97z" />
<glyph unicode="&#xc8;" horiz-adv-x="1495" d="M-32 0l20 106h190l249 1280h-190l21 107h1202l-64 -332h-123l40 209h-686l-97 -500h489l36 187h123l-96 -496h-123l36 187h-489l-121 -625h702l40 209h123l-64 -332h-1218zM946 1899l131 -264h-117l-210 264h196z" />
<glyph unicode="&#xc9;" horiz-adv-x="1495" d="M-32 0l20 106h190l249 1280h-190l21 107h1202l-64 -332h-123l40 209h-686l-97 -500h489l36 187h123l-96 -496h-123l36 187h-489l-121 -625h702l40 209h123l-64 -332h-1218zM1059 1899h197l-314 -264h-117z" />
<glyph unicode="&#xca;" horiz-adv-x="1495" d="M-32 0l20 106h190l249 1280h-190l21 107h1202l-64 -332h-123l40 209h-686l-97 -500h489l36 187h123l-96 -496h-123l36 187h-489l-121 -625h702l40 209h123l-64 -332h-1218zM908 1899h176l179 -264h-116l-171 161l-235 -161h-116z" />
<glyph unicode="&#xcb;" horiz-adv-x="1495" d="M-32 0l20 106h190l249 1280h-190l21 107h1202l-64 -332h-123l40 209h-686l-97 -500h489l36 187h123l-96 -496h-123l36 187h-489l-121 -625h702l40 209h123l-64 -332h-1218zM812 1884q48 0 75 -35q28 -35 19 -81q-10 -50 -50 -83q-40 -34 -90 -34q-49 0 -76 34 q-27 33 -17 83q9 46 50 81q42 35 89 35zM1202 1884q47 0 74 -35q28 -35 19 -81q-10 -50 -50 -83q-40 -34 -89 -34q-50 0 -77 34q-27 33 -17 83q9 46 50 81q42 35 90 35z" />
<glyph unicode="&#xcc;" horiz-adv-x="809" d="M381 106h190l-20 -106h-583l20 106h190l249 1280h-190l21 107h583l-21 -107h-190zM569 1899l131 -264h-117l-210 264h196z" />
<glyph unicode="&#xcd;" horiz-adv-x="809" d="M381 106h190l-20 -106h-583l20 106h190l249 1280h-190l21 107h583l-21 -107h-190zM718 1899h197l-314 -264h-117z" />
<glyph unicode="&#xce;" horiz-adv-x="809" d="M381 106h190l-20 -106h-583l20 106h190l249 1280h-190l21 107h583l-21 -107h-190zM567 1899h176l179 -264h-116l-171 161l-235 -161h-116z" />
<glyph unicode="&#xcf;" horiz-adv-x="809" d="M381 106h190l-20 -106h-583l20 106h190l249 1280h-190l21 107h583l-21 -107h-190zM435 1884q48 0 75 -35q28 -35 19 -81q-10 -50 -50 -83q-40 -34 -90 -34q-49 0 -76 34q-27 33 -17 83q9 46 50 81q42 35 89 35zM825 1884q47 0 74 -35q28 -35 19 -81q-10 -50 -50 -83 q-40 -34 -89 -34q-50 0 -77 34q-27 33 -17 83q9 46 50 81q42 35 90 35z" />
<glyph unicode="&#xd0;" horiz-adv-x="1653" d="M389 106h188q291 0 479.5 166t249 476t-63.5 474t-416 164h-188l-105 -542h336l-24 -125h-336zM-22 0l20 106h190l120 613h-200l24 125h200l105 542h-190l21 107h594q386 0 563.5 -197t108.5 -548q-68 -352 -322.5 -550t-639.5 -198h-594z" />
<glyph unicode="&#xd1;" horiz-adv-x="1792" d="M-42 0l20 106h201l249 1280h-201l21 107h383l666 -1178l208 1071h-200l21 107h524l-21 -107h-201l-275 -1415h-121l-711 1258l-219 -1123h201l-20 -106h-525zM1107 1715l-43 28q-17 13 -36 20t-36 7q-39 0 -71 -29q-31 -28 -44 -74l-96 1q21 100 84 159q62 59 147 59 q36 0 66 -9q29 -9 78 -40l44 -26q20 -13 41 -20q20 -7 37 -7q41 0 70 27q29 28 38 75h97q-22 -105 -85 -162q-62 -57 -156 -57q-67 0 -131 45z" />
<glyph unicode="&#xd2;" horiz-adv-x="1679" d="M710 78q245 0 403 168.5t222 498.5q64 331 -28 499.5t-337 168.5q-246 0 -404 -168.5t-222 -499.5q-64 -330 28 -498.5t338 -168.5zM689 -29q-152 0 -269.5 50t-195.5 147q-90 112 -117 254t8 323t117 323.5t216 254.5q117 98 253 147.5t290 49.5q325 0 483.5 -213 t90.5 -562q-35 -179 -118 -322.5t-216 -254.5q-117 -98 -253 -147.5t-289 -49.5zM1038 1899l131 -264h-117l-210 264h196z" />
<glyph unicode="&#xd3;" horiz-adv-x="1679" d="M710 78q245 0 403 168.5t222 498.5q64 331 -28 499.5t-337 168.5q-246 0 -404 -168.5t-222 -499.5q-64 -330 28 -498.5t338 -168.5zM689 -29q-152 0 -269.5 50t-195.5 147q-90 112 -117 254t8 323t117 323.5t216 254.5q117 98 253 147.5t290 49.5q325 0 483.5 -213 t90.5 -562q-35 -179 -118 -322.5t-216 -254.5q-117 -98 -253 -147.5t-289 -49.5zM1151 1899h197l-314 -264h-117z" />
<glyph unicode="&#xd4;" horiz-adv-x="1679" d="M710 78q245 0 403 168.5t222 498.5q64 331 -28 499.5t-337 168.5q-246 0 -404 -168.5t-222 -499.5q-64 -330 28 -498.5t338 -168.5zM689 -29q-152 0 -269.5 50t-195.5 147q-90 112 -117 254t8 323t117 323.5t216 254.5q117 98 253 147.5t290 49.5q325 0 483.5 -213 t90.5 -562q-35 -179 -118 -322.5t-216 -254.5q-117 -98 -253 -147.5t-289 -49.5zM1000 1899h176l179 -264h-116l-171 161l-235 -161h-116z" />
<glyph unicode="&#xd5;" horiz-adv-x="1679" d="M710 78q245 0 403 168.5t222 498.5q64 331 -28 499.5t-337 168.5q-246 0 -404 -168.5t-222 -499.5q-64 -330 28 -498.5t338 -168.5zM689 -29q-152 0 -269.5 50t-195.5 147q-90 112 -117 254t8 323t117 323.5t216 254.5q117 98 253 147.5t290 49.5q325 0 483.5 -213 t90.5 -562q-35 -179 -118 -322.5t-216 -254.5q-117 -98 -253 -147.5t-289 -49.5zM1049 1715l-43 28q-17 13 -36 20t-36 7q-39 0 -71 -29q-31 -28 -44 -74l-96 1q21 100 84 159q62 59 147 59q36 0 66 -9q29 -9 78 -40l44 -26q20 -13 41 -20q20 -7 37 -7q41 0 70 27 q29 28 38 75h97q-22 -105 -85 -162q-62 -57 -156 -57q-67 0 -131 45z" />
<glyph unicode="&#xd6;" horiz-adv-x="1679" d="M710 78q245 0 403 168.5t222 498.5q64 331 -28 499.5t-337 168.5q-246 0 -404 -168.5t-222 -499.5q-64 -330 28 -498.5t338 -168.5zM689 -29q-152 0 -269.5 50t-195.5 147q-90 112 -117 254t8 323t117 323.5t216 254.5q117 98 253 147.5t290 49.5q325 0 483.5 -213 t90.5 -562q-35 -179 -118 -322.5t-216 -254.5q-117 -98 -253 -147.5t-289 -49.5zM904 1884q48 0 75 -35q28 -35 19 -81q-10 -50 -50 -83q-40 -34 -90 -34q-49 0 -76 34q-27 33 -17 83q9 46 50 81q42 35 89 35zM1294 1884q47 0 74 -35q28 -35 19 -81q-10 -50 -50 -83 q-40 -34 -89 -34q-50 0 -77 34q-27 33 -17 83q9 46 50 81q42 35 90 35z" />
<glyph unicode="&#xd7;" horiz-adv-x="1716" d="M1434 1104l-463 -463l463 -461l-115 -112l-461 460l-461 -460l-114 112l460 461l-460 463l114 113l461 -461l461 461z" />
<glyph unicode="&#xd8;" horiz-adv-x="1679" d="M1310 1239q-48 88 -132 131t-208 43q-246 0 -404 -168.5t-222 -499.5q-23 -119 -26 -215.5t15 -177.5zM368 256q46 -89 131.5 -133.5t210.5 -44.5q245 0 403 168.5t222 498.5q22 117 25 215.5t-15 180.5zM1494 1276q66 -108 84 -239.5t-13 -291.5q-67 -345 -309.5 -559.5 t-566.5 -214.5q-141 0 -251.5 43t-194.5 129l-221 -200l-65 69l227 207q-66 105 -83 235.5t14 290.5q67 346 309.5 560.5t565.5 214.5q141 0 253 -42.5t192 -125.5l216 198l66 -71z" />
<glyph unicode="&#xd9;" horiz-adv-x="1726" d="M414 1386h-191l21 107h584l-21 -107h-191l-150 -772q-56 -286 16 -399t301 -113t344 113t171 399l150 772h-191l21 107h504l-21 -107h-190l-154 -792q-66 -341 -224.5 -482t-472.5 -141t-420 142t-40 481zM1102 1899l131 -264h-117l-210 264h196z" />
<glyph unicode="&#xda;" horiz-adv-x="1726" d="M414 1386h-191l21 107h584l-21 -107h-191l-150 -772q-56 -286 16 -399t301 -113t344 113t171 399l150 772h-191l21 107h504l-21 -107h-190l-154 -792q-66 -341 -224.5 -482t-472.5 -141t-420 142t-40 481zM1215 1899h197l-314 -264h-117z" />
<glyph unicode="&#xdb;" horiz-adv-x="1726" d="M414 1386h-191l21 107h584l-21 -107h-191l-150 -772q-56 -286 16 -399t301 -113t344 113t171 399l150 772h-191l21 107h504l-21 -107h-190l-154 -792q-66 -341 -224.5 -482t-472.5 -141t-420 142t-40 481zM1064 1899h176l179 -264h-116l-171 161l-235 -161h-116z" />
<glyph unicode="&#xdc;" horiz-adv-x="1726" d="M414 1386h-191l21 107h584l-21 -107h-191l-150 -772q-56 -286 16 -399t301 -113t344 113t171 399l150 772h-191l21 107h504l-21 -107h-190l-154 -792q-66 -341 -224.5 -482t-472.5 -141t-420 142t-40 481zM968 1884q48 0 75 -35q28 -35 19 -81q-10 -50 -50 -83 q-40 -34 -90 -34q-49 0 -76 34q-27 33 -17 83q9 46 50 81q42 35 89 35zM1358 1884q47 0 74 -35q28 -35 19 -81q-10 -50 -50 -83q-40 -34 -89 -34q-50 0 -77 34q-27 33 -17 83q9 46 50 81q42 35 90 35z" />
<glyph unicode="&#xdd;" horiz-adv-x="1352" d="M242 0l20 106h191l105 537l-317 743h-140l21 107h555l-21 -107h-174l256 -604l490 604h-168l21 107h434l-21 -107h-141l-589 -724l-109 -556h191l-20 -106h-584zM987 1899h197l-314 -264h-117z" />
<glyph unicode="&#xde;" horiz-adv-x="1384" d="M445 434h264q149 0 243 80.5t123 233.5q30 152 -32.5 232.5t-211.5 80.5h-264zM-32 0l20 106h190l249 1280h-190l21 107h624l-21 -107h-231l-42 -219h313q224 0 333 -113.5t71 -305.5q-37 -194 -191 -308t-377 -114h-313l-43 -220h231l-20 -106h-624z" />
<glyph unicode="&#xdf;" horiz-adv-x="1368" d="M1027 1210q15 119 -42 183.5t-176 64.5q-132 0 -205.5 -64.5t-100.5 -203.5l-244 -1256q-35 -178 -145 -269t-289 -91l12 98q105 0 156 56q53 60 82 206l243 1252q34 176 167.5 273t342.5 97q213 0 304.5 -104t62.5 -315h-22q-145 0 -239 -54t-112 -147 q-11 -52 8.5 -90.5t83.5 -85.5l79 -55q135 -99 178 -184t21 -199q-30 -155 -164.5 -253t-319.5 -98q-85 0 -165.5 18.5t-152.5 53.5l45 233h109q-15 -101 30 -153.5t147 -52.5q111 0 186.5 60.5t95.5 164.5q16 84 -12 143q-29 57 -132 131l-75 54q-92 66 -124 129 q-32 65 -16 147q24 122 124.5 204t258.5 107z" />
<glyph unicode="&#xe0;" horiz-adv-x="1221" d="M744 166q-133 -195 -348 -195q-176 0 -265 119q-62 84 -62 204q0 51 11 108q68 353 314 535q209 155 462 155q170 0 228 -29l-186 -957h158l-20 -106h-324zM263 300q0 -214 207 -214q126 0 211.5 100.5t123.5 292.5l93 482v0q0 29 -80 29q-192 0 -341 -150 q-148 -151 -201 -425q-13 -64 -13 -115zM621 1636l186 -376h-117l-266 376h197z" />
<glyph unicode="&#xe1;" horiz-adv-x="1221" d="M744 166q-133 -195 -348 -195q-176 0 -265 119q-62 84 -62 204q0 51 11 108q68 353 314 535q209 155 462 155q170 0 228 -29l-186 -957h158l-20 -106h-324zM263 300q0 -214 207 -214q126 0 211.5 100.5t123.5 292.5l93 482v0q0 29 -80 29q-192 0 -341 -150 q-148 -151 -201 -425q-13 -64 -13 -115zM915 1638h199l-414 -376h-117z" />
<glyph unicode="&#xe2;" horiz-adv-x="1221" d="M744 166q-133 -195 -348 -195q-176 0 -265 119q-62 84 -62 204q0 51 11 108q68 353 314 535q209 155 462 155q170 0 228 -29l-186 -957h158l-20 -106h-324zM263 300q0 -214 207 -214q126 0 211.5 100.5t123.5 292.5l93 482v0q0 29 -80 29q-192 0 -341 -150 q-148 -151 -201 -425q-13 -64 -13 -115zM714 1638h168l161 -376h-116l-152 260l-254 -260h-116z" />
<glyph unicode="&#xe3;" horiz-adv-x="1221" d="M744 166q-133 -195 -348 -195q-176 0 -265 119q-62 84 -62 204q0 51 11 108q68 353 314 535q209 155 462 155q170 0 228 -29l-186 -957h158l-20 -106h-324zM263 300q0 -214 207 -214q126 0 211.5 100.5t123.5 292.5l93 482v0q0 29 -80 29q-192 0 -341 -150 q-148 -151 -201 -425q-13 -64 -13 -115zM760 1370l-46 55q-21 24 -36 31q-15 8 -34 8q-42 0 -74 -40q-32 -39 -51 -115h-96q28 135 93 209q65 73 156 73q38 0 68 -14q29 -14 60 -47l46 -55q18 -23 34 -31q15 -8 36 -8q43 0 75 40t50 115h96q-28 -135 -93 -209 q-65 -73 -156 -73q-38 0 -68 14q-29 14 -60 47z" />
<glyph unicode="&#xe4;" horiz-adv-x="1221" d="M744 166q-133 -195 -348 -195q-176 0 -265 119q-62 84 -62 204q0 51 11 108q68 353 314 535q209 155 462 155q170 0 228 -29l-186 -957h158l-20 -106h-324zM263 300q0 -214 207 -214q126 0 211.5 100.5t123.5 292.5l93 482v0q0 29 -80 29q-192 0 -341 -150 q-148 -151 -201 -425q-13 -64 -13 -115zM591 1569q48 0 76 -35q27 -34 18 -82q-10 -51 -49 -84q-40 -33 -91 -33q-50 0 -76 33q-27 33 -17 84q9 48 51 82q41 35 88 35zM981 1569q47 0 75 -35q27 -34 18 -82q-10 -51 -49 -84q-40 -33 -90 -33q-51 0 -77 33q-27 33 -17 84 q9 48 51 82q41 35 89 35z" />
<glyph unicode="&#xe5;" horiz-adv-x="1221" d="M744 166q-133 -195 -348 -195q-176 0 -265 119q-62 84 -62 204q0 51 11 108q68 353 314 535q209 155 462 155q170 0 228 -29l-186 -957h158l-20 -106h-324zM263 300q0 -214 207 -214q126 0 211.5 100.5t123.5 292.5l93 482v0q0 29 -80 29q-192 0 -341 -150 q-148 -151 -201 -425q-13 -64 -13 -115zM1033 1524q-22 -115 -117 -195t-210 -80t-179 80t-42 195t117 194q95 80 210 80t179 -80q64 -79 42 -194zM911 1524q12 63 -23 107q-36 44 -100 44q-65 0 -117 -43q-51 -44 -64 -108q-13 -65 23 -108q35 -44 100 -44q64 0 116 44 q53 44 65 108z" />
<glyph unicode="&#xe6;" horiz-adv-x="1925" d="M1526 632q112 66 112 190q0 171 -227 171q-134 0 -227 -102t-150 -377q317 14 492 118zM1195 -29q-238 0 -344 196q-144 -196 -441 -196h-14q-176 0 -265 119q-62 84 -62 204q0 51 11 108q68 353 314 535q209 155 462 155q170 0 228 -29l-19 -97q159 126 377 126 q391 0 391 -277q0 -399 -820 -407q-4 -38 -4 -72q0 -94 34 -156q59 -110 217 -110q116 0 173 35q102 63 126 144h135q-40 -127 -189 -216q-104 -62 -310 -62zM276 415q-13 -65 -13 -118q0 -211 207 -211q126 0 211.5 100.5t123.5 292.5l93 482q0 29 -80 29q-192 0 -341 -150 q-148 -151 -201 -425z" />
<glyph unicode="&#xe7;" horiz-adv-x="1147" d="M1012 319q-72 -170 -200.5 -259t-304.5 -89q-232 0 -343 153q-77 107 -77 261q0 69 15 147q50 255 220.5 407.5t402.5 152.5q101 0 196.5 -23.5t186.5 -71.5l-52 -272h-107v26q0 120 -52 178q-58 64 -189 64q-149 0 -247.5 -115.5t-143.5 -345.5q-20 -105 -20 -187 q0 -96 28 -159q53 -116 203 -116q119 0 202 62t134 187h148zM556 0q52 -64 72.5 -120t11.5 -105q-16 -81 -87.5 -125.5t-183.5 -44.5q-42 0 -85 6t-87 18l26 131q37 -17 75 -25.5t73 -8.5q57 0 95 26.5t47 71.5q6 28 -7.5 72t-46.5 104h97z" />
<glyph unicode="&#xe8;" horiz-adv-x="1212" d="M300 408q-4 -38 -4 -72q0 -94 34 -156q59 -110 217 -110q116 0 173 35q102 63 126 144h135q-40 -127 -189 -216q-104 -62 -310 -62t-317 153q-78 107 -78 262q0 68 15 145q49 253 218 407t409 154q391 0 391 -277q0 -203 -205 -302q-209 -101 -615 -105zM813 632 q112 66 112 190q0 171 -227 171q-134 0 -227 -102t-150 -377q321 15 492 118zM658 1636l186 -376h-117l-266 376h197z" />
<glyph unicode="&#xe9;" horiz-adv-x="1212" d="M300 408q-4 -38 -4 -72q0 -94 34 -156q59 -110 217 -110q116 0 173 35q102 63 126 144h135q-40 -127 -189 -216q-104 -62 -310 -62t-317 153q-78 107 -78 262q0 68 15 145q49 253 218 407t409 154q391 0 391 -277q0 -203 -205 -302q-209 -101 -615 -105zM813 632 q112 66 112 190q0 171 -227 171q-134 0 -227 -102t-150 -377q321 15 492 118zM952 1638h199l-414 -376h-117z" />
<glyph unicode="&#xea;" horiz-adv-x="1212" d="M300 408q-4 -38 -4 -72q0 -94 34 -156q59 -110 217 -110q116 0 173 35q102 63 126 144h135q-40 -127 -189 -216q-104 -62 -310 -62t-317 153q-78 107 -78 262q0 68 15 145q49 253 218 407t409 154q391 0 391 -277q0 -203 -205 -302q-209 -101 -615 -105zM813 632 q112 66 112 190q0 171 -227 171q-134 0 -227 -102t-150 -377q321 15 492 118zM751 1638h168l161 -376h-116l-152 260l-254 -260h-116z" />
<glyph unicode="&#xeb;" horiz-adv-x="1212" d="M300 408q-4 -38 -4 -72q0 -94 34 -156q59 -110 217 -110q116 0 173 35q102 63 126 144h135q-40 -127 -189 -216q-104 -62 -310 -62t-317 153q-78 107 -78 262q0 68 15 145q49 253 218 407t409 154q391 0 391 -277q0 -203 -205 -302q-209 -101 -615 -105zM813 632 q112 66 112 190q0 171 -227 171q-134 0 -227 -102t-150 -377q321 15 492 118zM628 1569q48 0 76 -35q27 -34 18 -82q-10 -51 -49 -84q-40 -33 -91 -33q-50 0 -76 33q-27 33 -17 84q9 48 51 82q41 35 88 35zM1018 1569q47 0 75 -35q27 -34 18 -82q-10 -51 -49 -84 q-40 -33 -90 -33q-51 0 -77 33q-27 33 -17 84q9 48 51 82q41 35 89 35z" />
<glyph unicode="&#xec;" horiz-adv-x="655" d="M351 106h174l-20 -106h-358l186 956h-176l20 107h360zM380 1636l186 -376h-117l-266 376h197z" />
<glyph unicode="&#xed;" horiz-adv-x="655" d="M351 106h174l-20 -106h-358l186 956h-176l20 107h360zM674 1638h199l-414 -376h-117z" />
<glyph unicode="&#xee;" horiz-adv-x="655" d="M351 106h174l-20 -106h-358l186 956h-176l20 107h360zM473 1638h168l161 -376h-116l-152 260l-254 -260h-116z" />
<glyph unicode="&#xef;" horiz-adv-x="655" d="M351 106h174l-20 -106h-358l186 956h-176l20 107h360zM350 1569q48 0 76 -35q27 -34 18 -82q-10 -51 -49 -84q-40 -33 -91 -33q-50 0 -76 33q-27 33 -17 84q9 48 51 82q41 35 88 35zM740 1569q47 0 75 -35q27 -34 18 -82q-10 -51 -49 -84q-40 -33 -90 -33q-51 0 -77 33 q-27 33 -17 84q9 48 51 82q41 35 89 35z" />
<glyph unicode="&#xf0;" horiz-adv-x="1233" d="M853 928q-43 9 -83 13.5t-80 4.5q-173 0 -276 -107t-147 -331q-40 -210 16 -324t198 -114q144 0 244 114.5t141 327.5q22 112 19 217.5t-32 198.5zM866 1307q150 -167 205.5 -362.5t13.5 -412.5q-49 -254 -219.5 -407.5t-403.5 -153.5q-229 0 -342 151.5t-66 395.5 q46 236 215.5 381t397.5 145q35 0 71.5 -3t87.5 -11q-12 53 -38 106.5t-65 108.5l-351 -149l-22 78l319 135q-50 58 -120.5 98.5t-161.5 62.5l35 86q114 -26 209.5 -73t174.5 -115l351 150l21 -78z" />
<glyph unicode="&#xf1;" horiz-adv-x="1319" d="M144 0l186 956h-176l20 107h360l-36 -189q72 108 164 163t200 55q176 0 240 -101q38 -61 38 -163q0 -67 -17 -152l-111 -570h164l-20 -106h-349l120 618q20 103 20 172q0 61 -16 96q-34 72 -155 72q-128 0 -213 -93.5t-120 -272.5l-115 -592h-184zM790 1370l-46 55 q-21 24 -36 31q-15 8 -34 8q-42 0 -74 -40q-32 -39 -51 -115h-96q28 135 93 209q65 73 156 73q38 0 68 -14q29 -14 60 -47l46 -55q18 -23 34 -31q15 -8 36 -8q43 0 75 40t50 115h96q-28 -135 -93 -209q-65 -73 -156 -73q-38 0 -68 14q-29 14 -60 47z" />
<glyph unicode="&#xf2;" horiz-adv-x="1233" d="M526 70q148 0 246.5 117t142.5 345q20 104 20 185q0 96 -28 159q-53 117 -201 117t-246.5 -116.5t-142.5 -344.5q-20 -104 -20 -184q0 -97 29 -161q53 -117 200 -117zM507 -29q-232 0 -343 153q-77 107 -77 261q0 69 15 147q49 254 219.5 407t403.5 153t344 -153 q76 -106 76 -260q0 -69 -15 -147q-49 -254 -219.5 -407.5t-403.5 -153.5zM668 1636l186 -376h-117l-266 376h197z" />
<glyph unicode="&#xf3;" horiz-adv-x="1233" d="M526 70q148 0 246.5 117t142.5 345q20 104 20 185q0 96 -28 159q-53 117 -201 117t-246.5 -116.5t-142.5 -344.5q-20 -104 -20 -184q0 -97 29 -161q53 -117 200 -117zM507 -29q-232 0 -343 153q-77 107 -77 261q0 69 15 147q49 254 219.5 407t403.5 153t344 -153 q76 -106 76 -260q0 -69 -15 -147q-49 -254 -219.5 -407.5t-403.5 -153.5zM962 1638h199l-414 -376h-117z" />
<glyph unicode="&#xf4;" horiz-adv-x="1233" d="M526 70q148 0 246.5 117t142.5 345q20 104 20 185q0 96 -28 159q-53 117 -201 117t-246.5 -116.5t-142.5 -344.5q-20 -104 -20 -184q0 -97 29 -161q53 -117 200 -117zM507 -29q-232 0 -343 153q-77 107 -77 261q0 69 15 147q49 254 219.5 407t403.5 153t344 -153 q76 -106 76 -260q0 -69 -15 -147q-49 -254 -219.5 -407.5t-403.5 -153.5zM761 1638h168l161 -376h-116l-152 260l-254 -260h-116z" />
<glyph unicode="&#xf5;" horiz-adv-x="1233" d="M526 70q148 0 246.5 117t142.5 345q20 104 20 185q0 96 -28 159q-53 117 -201 117t-246.5 -116.5t-142.5 -344.5q-20 -104 -20 -184q0 -97 29 -161q53 -117 200 -117zM507 -29q-232 0 -343 153q-77 107 -77 261q0 69 15 147q49 254 219.5 407t403.5 153t344 -153 q76 -106 76 -260q0 -69 -15 -147q-49 -254 -219.5 -407.5t-403.5 -153.5zM807 1370l-46 55q-21 24 -36 31q-15 8 -34 8q-42 0 -74 -40q-32 -39 -51 -115h-96q28 135 93 209q65 73 156 73q38 0 68 -14q29 -14 60 -47l46 -55q18 -23 34 -31q15 -8 36 -8q43 0 75 40t50 115h96 q-28 -135 -93 -209q-65 -73 -156 -73q-38 0 -68 14q-29 14 -60 47z" />
<glyph unicode="&#xf6;" horiz-adv-x="1233" d="M526 70q148 0 246.5 117t142.5 345q20 104 20 185q0 96 -28 159q-53 117 -201 117t-246.5 -116.5t-142.5 -344.5q-20 -104 -20 -184q0 -97 29 -161q53 -117 200 -117zM507 -29q-232 0 -343 153q-77 107 -77 261q0 69 15 147q49 254 219.5 407t403.5 153t344 -153 q76 -106 76 -260q0 -69 -15 -147q-49 -254 -219.5 -407.5t-403.5 -153.5zM638 1569q48 0 76 -35q27 -34 18 -82q-10 -51 -49 -84q-40 -33 -91 -33q-50 0 -76 33q-27 33 -17 84q9 48 51 82q41 35 88 35zM1028 1569q47 0 75 -35q27 -34 18 -82q-10 -51 -49 -84 q-40 -33 -90 -33q-51 0 -77 33q-27 33 -17 84q9 48 51 82q41 35 89 35z" />
<glyph unicode="&#xf7;" horiz-adv-x="1716" d="M725 1012q0 56 38.5 94.5t94.5 38.5q55 0 94 -39t39 -94q0 -56 -39 -94.5t-94 -38.5q-57 0 -95 38t-38 95zM725 272q0 56 38.5 95t94.5 39q55 0 94 -39t39 -95q0 -55 -39 -94t-94 -39q-57 0 -95 38.5t-38 94.5zM217 723h1282v-162h-1282v162z" />
<glyph unicode="&#xf8;" horiz-adv-x="1233" d="M908 879q-27 57 -77.5 85.5t-124.5 28.5q-147 0 -246 -117t-143 -344q-14 -72 -18 -131t1 -108zM325 190q28 -61 77.5 -90.5t123.5 -29.5q147 0 246 117.5t143 344.5q15 76 19 136.5t-1 111.5zM1080 922q48 -74 60.5 -173t-10.5 -217q-49 -254 -219.5 -407.5 t-403.5 -153.5q-94 0 -169 26.5t-131 80.5l-177 -172l-63 63l183 178q-46 77 -58 173.5t10 211.5q49 254 219.5 407t403.5 153q94 0 169 -25.5t129 -75.5l172 166l63 -63z" />
<glyph unicode="&#xf9;" horiz-adv-x="1319" d="M991 1063h184l-186 -957h174l-20 -106h-358l36 188q-72 -106 -163.5 -161.5t-198.5 -55.5q-177 0 -241 101q-39 60 -39 163q0 67 17 152l110 569h-166l21 107h351l-120 -619q-20 -103 -20 -171q0 -61 16 -95q33 -72 155 -72q128 0 213.5 94t119.5 273zM636 1636l186 -376 h-117l-266 376h197z" />
<glyph unicode="&#xfa;" horiz-adv-x="1319" d="M991 1063h184l-186 -957h174l-20 -106h-358l36 188q-72 -106 -163.5 -161.5t-198.5 -55.5q-177 0 -241 101q-39 60 -39 163q0 67 17 152l110 569h-166l21 107h351l-120 -619q-20 -103 -20 -171q0 -61 16 -95q33 -72 155 -72q128 0 213.5 94t119.5 273zM930 1638h199 l-414 -376h-117z" />
<glyph unicode="&#xfb;" horiz-adv-x="1319" d="M991 1063h184l-186 -957h174l-20 -106h-358l36 188q-72 -106 -163.5 -161.5t-198.5 -55.5q-177 0 -241 101q-39 60 -39 163q0 67 17 152l110 569h-166l21 107h351l-120 -619q-20 -103 -20 -171q0 -61 16 -95q33 -72 155 -72q128 0 213.5 94t119.5 273zM729 1638h168 l161 -376h-116l-152 260l-254 -260h-116z" />
<glyph unicode="&#xfc;" horiz-adv-x="1319" d="M991 1063h184l-186 -957h174l-20 -106h-358l36 188q-72 -106 -163.5 -161.5t-198.5 -55.5q-177 0 -241 101q-39 60 -39 163q0 67 17 152l110 569h-166l21 107h351l-120 -619q-20 -103 -20 -171q0 -61 16 -95q33 -72 155 -72q128 0 213.5 94t119.5 273zM606 1569 q48 0 76 -35q27 -34 18 -82q-10 -51 -49 -84q-40 -33 -91 -33q-50 0 -76 33q-27 33 -17 84q9 48 51 82q41 35 88 35zM996 1569q47 0 75 -35q27 -34 18 -82q-10 -51 -49 -84q-40 -33 -90 -33q-51 0 -77 33q-27 33 -17 84q9 48 51 82q41 35 89 35z" />
<glyph unicode="&#xfd;" horiz-adv-x="1157" d="M1178 1054q-99 -572 -273 -874q-255 -443 -460 -576q-91 -59 -331 -59q-47 0 -94.5 8t-95.5 23l40 203h94q-2 -16 -2 -31q0 -42 18 -66q25 -34 90 -34q176 0 329 153l-251 1155h-121l21 107h275l236 -1055q161 241 200 340q126 311 151 599h-121l21 107h274zM926 1638 h199l-414 -376h-117z" />
<glyph unicode="&#xfe;" horiz-adv-x="1311" d="M424 584l-21 -105q-15 -79 -15 -142q0 -91 32 -151q54 -100 194 -100q141 0 235.5 113t137.5 333q19 101 19 180q0 92 -27 153q-51 112 -192 112q-140 0 -233 -101t-130 -292zM408 1450h-177l21 106h361l-128 -659q73 100 165.5 147.5t215.5 47.5q196 0 290 -155 q62 -102 62 -245q0 -75 -16 -160q-49 -250 -203 -405.5t-350 -155.5q-123 0 -197.5 47.5t-109.5 147.5l-115 -592h-184z" />
<glyph unicode="&#xff;" horiz-adv-x="1157" d="M1178 1054q-99 -572 -273 -874q-255 -443 -460 -576q-91 -59 -331 -59q-47 0 -94.5 8t-95.5 23l40 203h94q-2 -16 -2 -31q0 -42 18 -66q25 -34 90 -34q176 0 329 153l-251 1155h-121l21 107h275l236 -1055q161 241 200 340q126 311 151 599h-121l21 107h274zM602 1569 q48 0 76 -35q27 -34 18 -82q-10 -51 -49 -84q-40 -33 -91 -33q-50 0 -76 33q-27 33 -17 84q9 48 51 82q41 35 88 35zM992 1569q47 0 75 -35q27 -34 18 -82q-10 -51 -49 -84q-40 -33 -90 -33q-51 0 -77 33q-27 33 -17 84q9 48 51 82q41 35 89 35z" />
<glyph unicode="&#x131;" horiz-adv-x="655" d="M351 106h174l-20 -106h-358l186 956h-176l20 107h360z" />
<glyph unicode="&#x152;" horiz-adv-x="2329" d="M1012 106l249 1280h-187q-292 0 -478.5 -164t-246.5 -472q-61 -311 62 -477.5t414 -166.5h187zM2020 0h-1229q-385 0 -562.5 198t-108.5 552q68 351 321.5 547t639.5 196h1212l-64 -332h-123l40 209h-686l-97 -500h492l36 187h121l-96 -496h-121l36 187h-492l-121 -625 h703l40 209h123z" />
<glyph unicode="&#x153;" horiz-adv-x="2025" d="M526 70q148 0 246.5 117t142.5 345t-8.5 344.5t-200.5 116.5t-246.5 -116.5t-142.5 -344.5t9 -345t200 -117zM1626 632q112 66 112 190q0 171 -227 171q-134 0 -227 -102t-150 -377q319 15 492 118zM1113 408q-4 -38 -4 -72q0 -94 34 -156q59 -110 217 -110q116 0 173 35 q102 63 126 144h135q-40 -127 -189 -216q-104 -62 -310 -62t-317 153q-15 20 -26 41q-20 -21 -42 -41q-170 -153 -403 -153q-232 0 -343 153q-77 107 -77 261q0 69 15 147q49 254 219.5 407t403.5 153t344 -153q14 -19 25 -40q19 20 39 39q169 154 409 154q391 0 391 -277 q0 -203 -205 -302q-209 -101 -615 -105z" />
<glyph unicode="&#x178;" horiz-adv-x="1352" d="M242 0l20 106h191l105 537l-317 743h-140l21 107h555l-21 -107h-174l256 -604l490 604h-168l21 107h434l-21 -107h-141l-589 -724l-109 -556h191l-20 -106h-584zM740 1884q48 0 75 -35q28 -35 19 -81q-10 -50 -50 -83q-40 -34 -90 -34q-49 0 -76 34q-27 33 -17 83 q9 46 50 81q42 35 89 35zM1130 1884q47 0 74 -35q28 -35 19 -81q-10 -50 -50 -83q-40 -34 -89 -34q-50 0 -77 34q-27 33 -17 83q9 46 50 81q42 35 90 35z" />
<glyph unicode="&#x2c6;" horiz-adv-x="1024" d="M657 1638h168l161 -376h-116l-152 260l-254 -260h-116z" />
<glyph unicode="&#x2da;" horiz-adv-x="1024" d="M976 1524q-22 -115 -117 -195t-210 -80t-179 80t-42 195t117 194q95 80 210 80t179 -80q64 -79 42 -194zM854 1524q12 63 -23 107q-36 44 -100 44q-65 0 -117 -43q-51 -44 -64 -108q-13 -65 23 -108q35 -44 100 -44q64 0 116 44q53 44 65 108z" />
<glyph unicode="&#x2dc;" horiz-adv-x="1024" d="M703 1370l-46 55q-21 24 -36 31q-15 8 -34 8q-42 0 -74 -40q-32 -39 -51 -115h-96q28 135 93 209q65 73 156 73q38 0 68 -14q29 -14 60 -47l46 -55q18 -23 34 -31q15 -8 36 -8q43 0 75 40t50 115h96q-28 -135 -93 -209q-65 -73 -156 -73q-38 0 -68 14q-29 14 -60 47z" />
<glyph unicode="&#x2000;" horiz-adv-x="950" />
<glyph unicode="&#x2001;" horiz-adv-x="1901" />
<glyph unicode="&#x2002;" horiz-adv-x="950" />
<glyph unicode="&#x2003;" horiz-adv-x="1901" />
<glyph unicode="&#x2004;" horiz-adv-x="633" />
<glyph unicode="&#x2005;" horiz-adv-x="475" />
<glyph unicode="&#x2006;" horiz-adv-x="316" />
<glyph unicode="&#x2007;" horiz-adv-x="316" />
<glyph unicode="&#x2008;" horiz-adv-x="237" />
<glyph unicode="&#x2009;" horiz-adv-x="380" />
<glyph unicode="&#x200a;" horiz-adv-x="105" />
<glyph unicode="&#x2010;" horiz-adv-x="692" d="M105 627h512l-30 -156h-512z" />
<glyph unicode="&#x2011;" horiz-adv-x="692" d="M105 627h512l-30 -156h-512z" />
<glyph unicode="&#x2012;" horiz-adv-x="692" d="M105 627h512l-30 -156h-512z" />
<glyph unicode="&#x2013;" horiz-adv-x="1024" d="M103 610h844l-26 -133h-844z" />
<glyph unicode="&#x2014;" horiz-adv-x="2048" d="M103 610h1868l-26 -133h-1868z" />
<glyph unicode="&#x2018;" horiz-adv-x="651" d="M583 1440q-90 -64 -141 -149t-76 -214l-12 -63h-194q35 174 120.5 294.5t239.5 211.5z" />
<glyph unicode="&#x2019;" horiz-adv-x="651" d="M111 1067q91 63 142.5 149t76.5 216l12 61h194q-34 -173 -120.5 -294t-241.5 -212z" />
<glyph unicode="&#x201a;" horiz-adv-x="651" d="M56 -199q109 69 170.5 162.5t87.5 226.5l7 37h197q-41 -171 -137.5 -293.5t-259.5 -212.5z" />
<glyph unicode="&#x201c;" horiz-adv-x="1047" d="M978 1440q-89 -64 -140 -149t-76 -214l-12 -63h-195q36 175 121 295t239 211zM583 1440q-90 -64 -141 -149t-76 -214l-12 -63h-194q35 174 120.5 294.5t239.5 211.5z" />
<glyph unicode="&#x201d;" horiz-adv-x="1047" d="M111 1067q91 63 142.5 149t76.5 216l12 61h194q-34 -173 -120.5 -294t-241.5 -212zM509 1067q89 63 140 148.5t76 214.5l12 63h194q-35 -175 -120.5 -295t-238.5 -211z" />
<glyph unicode="&#x201e;" horiz-adv-x="1061" d="M56 -199q109 69 170.5 162.5t87.5 226.5l7 37h197q-41 -171 -137.5 -293.5t-259.5 -212.5zM451 -199q109 69 171 162.5t88 226.5l7 37h196q-40 -171 -136.5 -293.5t-260.5 -212.5z" />
<glyph unicode="&#x2022;" horiz-adv-x="1208" d="M307 762q0 124 86.5 209.5t212.5 85.5q124 0 209.5 -85.5t85.5 -209.5q0 -125 -86 -211t-211 -86t-211 86t-86 211z" />
<glyph unicode="&#x2026;" horiz-adv-x="2048" d="M1573 104q11 56 57 95t102 39q55 0 86.5 -39t20.5 -95q-11 -55 -57.5 -94t-101.5 -39q-57 0 -87.5 38.5t-19.5 94.5zM891 104q11 56 57 95t102 39q55 0 86.5 -39t20.5 -95q-11 -55 -57.5 -94t-101.5 -39q-57 0 -87.5 38.5t-19.5 94.5zM209 104q11 56 57 95t102 39 q55 0 86.5 -39t20.5 -95q-11 -55 -57.5 -94t-101.5 -39q-57 0 -87.5 38.5t-19.5 94.5z" />
<glyph unicode="&#x202f;" horiz-adv-x="380" />
<glyph unicode="&#x2039;" horiz-adv-x="819" d="M716 1059l-22 -115l-364 -344l230 -344l-22 -115l-388 418l16 82z" />
<glyph unicode="&#x203a;" horiz-adv-x="819" d="M282 1059l388 -418l-16 -82l-550 -418l22 115l363 344l-229 344z" />
<glyph unicode="&#x2044;" horiz-adv-x="342" d="M718 1520h150l-1244 -1549h-150z" />
<glyph unicode="&#x205f;" horiz-adv-x="475" />
<glyph unicode="&#x2074;" horiz-adv-x="821" d="M429 971l79 407l-387 -407h308zM658 668h-434l16 84h146l27 137h-398l16 84l503 530h141l-103 -532h164l-16 -82h-164l-27 -137h145z" />
<glyph unicode="&#x20ac;" d="M1069 395q-83 -205 -220 -314.5t-310 -109.5q-189 0 -295 152t-102 416h-190l65 104h135q2 15 6 39q7 49 10 63q7 34 12.5 58t11.5 47h-180l66 104h145q98 264 263 415t355 151q99 0 192 -31t204 -100l-66 -342h-106q15 180 -43 277t-180 97q-136 0 -241.5 -119 t-170.5 -348h504l-68 -104h-463q-3 -14 -9 -37q-12 -51 -15 -68q-2 -9 -7.5 -43t-10.5 -59h375l-67 -104h-320q-22 -230 37 -349.5t194 -119.5q116 0 207.5 83.5t148.5 241.5h133z" />
<glyph unicode="&#x2122;" horiz-adv-x="2048" d="M1118 1493l174 -270l181 270h219v-66h-86v-446h86v-66h-285v66h86v426l-209 -311h-43l-199 311v-426h84v-66h-241v66h86v446h-86v66h233zM242 1493h557v-170h-68v104h-153v-446h86v-66h-287v66h86v446h-156v-104h-65v170z" />
<glyph unicode="&#xe000;" horiz-adv-x="1065" d="M0 1065h1065v-1065h-1065v1065z" />
<glyph horiz-adv-x="0" d="M-520 1511q48 0 75 -35q28 -35 19 -81q-10 -50 -50 -83q-40 -34 -90 -34q-49 0 -76 34q-27 33 -17 83q9 46 50 81q42 35 89 35zM-130 1511q47 0 74 -35q28 -35 19 -81q-10 -50 -50 -83q-40 -34 -89 -34q-50 0 -77 34q-27 33 -17 83q9 46 50 81q42 35 90 35z" />
<glyph horiz-adv-x="0" d="M-273 1526h197l-314 -264h-117z" />
<glyph horiz-adv-x="0" d="M-375 1342l-43 28q-17 13 -36 20t-36 7q-39 0 -71 -29q-31 -28 -44 -74l-96 1q21 100 84 159q62 59 147 59q36 0 66 -9q29 -9 78 -40l44 -26q20 -13 41 -20q20 -7 37 -7q41 0 70 27q29 28 38 75h97q-22 -105 -85 -162q-62 -57 -156 -57q-67 0 -131 45z" />
<glyph horiz-adv-x="0" d="M-386 1526l131 -264h-117l-210 264h196z" />
<glyph horiz-adv-x="0" d="M-424 1526h176l179 -264h-116l-171 161l-235 -161h-116z" />
</font>
</defs>
</svg>
